<svg width="48" height="30" viewBox="0 0 48 30" fill="none" xmlns="http://www.w3.org/2000/svg">
<path d="M13.5301 11.061C13.5301 11.652 13.5901 12.132 13.7041 12.486C13.8301 12.837 13.9921 13.221 14.2141 13.638C14.2849 13.7481 14.3234 13.876 14.3251 14.007C14.3251 14.166 14.2291 14.328 14.0251 14.487L13.0171 15.159C12.8961 15.2463 12.7522 15.2964 12.6031 15.303C12.4411 15.303 12.2821 15.225 12.1231 15.081C11.9075 14.849 11.7146 14.5968 11.5471 14.328C11.3696 14.0202 11.2055 13.7049 11.0551 13.383C9.80708 14.856 8.24408 15.594 6.36008 15.594C5.01908 15.594 3.94808 15.207 3.16808 14.439C2.38508 13.671 1.98608 12.645 1.98608 11.364C1.98608 10.002 2.46608 8.89798 3.43808 8.06398C4.41308 7.22998 5.70608 6.81598 7.35008 6.81598C7.89008 6.81598 8.45108 6.86398 9.04208 6.94198C9.63308 7.02298 10.2421 7.15198 10.8781 7.29598V6.12598C10.8781 4.90798 10.6231 4.05898 10.1281 3.56398C9.61808 3.06598 8.75408 2.82598 7.52408 2.82598C6.96608 2.82598 6.39308 2.89198 5.80208 3.03598C5.2149 3.17572 4.63844 3.35718 4.07708 3.57898C3.89585 3.66103 3.70945 3.73118 3.51908 3.78898C3.43659 3.81623 3.35084 3.83237 3.26408 3.83698C3.03908 3.83698 2.92808 3.67498 2.92808 3.33898V2.55298C2.92808 2.29798 2.95808 2.10298 3.03908 1.99498C3.15998 1.84778 3.31425 1.73156 3.48908 1.65598C4.04408 1.36798 4.71608 1.12798 5.49908 0.935976C6.27908 0.725976 7.11009 0.632976 7.98909 0.632976C9.88809 0.632976 11.2771 1.06498 12.1711 1.92898C13.0501 2.79298 13.4971 4.10698 13.4971 5.87098V11.061H13.5271H13.5301ZM7.04708 13.494C7.57208 13.494 8.11508 13.398 8.69108 13.206C9.26709 13.014 9.77708 12.66 10.2061 12.18C10.4633 11.8853 10.6491 11.5352 10.7491 11.157C10.8451 10.77 10.9111 10.308 10.9111 9.76198V9.08998C10.4265 8.97247 9.93576 8.88233 9.44108 8.81998C8.94365 8.75563 8.44266 8.72256 7.94108 8.72098C6.87008 8.72098 6.09008 8.93098 5.56208 9.36298C5.03408 9.79498 4.78208 10.404 4.78208 11.205C4.78208 11.955 4.97108 12.516 5.37008 12.903C5.75408 13.302 6.31208 13.494 7.04708 13.494ZM19.8661 15.225C19.5781 15.225 19.3861 15.177 19.2601 15.063C19.1311 14.967 19.0201 14.745 18.9241 14.439L15.1741 2.05798C15.1011 1.85034 15.0528 1.63487 15.0301 1.41598C15.0301 1.16098 15.1561 1.01698 15.4111 1.01698H16.9771C17.2771 1.01698 17.4871 1.06498 17.5981 1.17598C17.7271 1.27198 17.8231 1.49698 17.9191 1.79998L20.6011 12.405L23.0911 1.79998C23.1691 1.48198 23.2651 1.27198 23.3941 1.17598C23.5857 1.05867 23.8088 1.00316 24.0331 1.01698H25.3111C25.6111 1.01698 25.8211 1.06498 25.9471 1.17598C26.0761 1.27198 26.1871 1.49698 26.2531 1.79998L28.7731 12.534L31.5331 1.79998C31.5844 1.56774 31.695 1.35277 31.8541 1.17598C32.0401 1.05836 32.2585 1.0027 32.4781 1.01698H33.9631C34.2181 1.01698 34.3621 1.14598 34.3621 1.41598C34.3621 1.49698 34.3441 1.57798 34.3321 1.67398C34.3062 1.81013 34.268 1.94368 34.2181 2.07298L30.3691 14.454C30.2761 14.775 30.1621 14.985 30.0361 15.081C29.8549 15.1969 29.6418 15.2525 29.4271 15.24H28.0561C27.7531 15.24 27.5461 15.192 27.4171 15.081C27.2881 14.967 27.1771 14.76 27.1141 14.439L24.6391 4.10998L22.1791 14.427C22.1011 14.748 22.0051 14.955 21.8791 15.066C21.7501 15.18 21.5251 15.228 21.2401 15.228H19.8661V15.225ZM40.3801 15.657C39.5516 15.6581 38.7259 15.5614 37.9201 15.369C37.1221 15.177 36.5011 14.967 36.0841 14.727C35.8291 14.583 35.6551 14.424 35.5891 14.277C35.5283 14.1358 35.4966 13.9837 35.4961 13.83V13.014C35.4961 12.678 35.6221 12.516 35.8621 12.516C35.9601 12.5162 36.0573 12.5324 36.1501 12.564C36.2461 12.597 36.3901 12.66 36.5491 12.726C37.0891 12.966 37.6831 13.158 38.3041 13.287C38.9431 13.413 39.5641 13.479 40.2031 13.479C41.2111 13.479 41.9911 13.302 42.5341 12.951C42.7949 12.7931 43.0093 12.5688 43.1553 12.3011C43.3012 12.0334 43.3736 11.7318 43.3651 11.427C43.3705 11.2212 43.3351 11.0163 43.2609 10.8243C43.1868 10.6322 43.0754 10.4568 42.9331 10.308C42.6481 10.002 42.1051 9.72898 41.3221 9.47398L39.0061 8.75398C37.8421 8.38498 36.9781 7.83898 36.4531 7.11898C35.9391 6.4537 35.6587 5.63764 35.6551 4.79698C35.6551 4.12498 35.7991 3.53098 36.0841 3.01798C36.3721 2.50798 36.7561 2.05798 37.2361 1.70398C37.7161 1.33798 38.2561 1.06498 38.8951 0.872976C39.5341 0.680976 40.2031 0.599976 40.9051 0.599976C41.2591 0.599976 41.6251 0.614977 41.9761 0.662977C42.3421 0.710977 42.6781 0.776977 43.0141 0.842977C43.3321 0.920977 43.6381 0.998977 43.9231 1.09798C44.2111 1.19398 44.4331 1.28998 44.5951 1.38598C44.7834 1.48066 44.9476 1.61714 45.0751 1.78498C45.1778 1.94117 45.2272 2.12638 45.2161 2.31298V3.06598C45.2161 3.40198 45.0901 3.57898 44.8501 3.57898C44.6376 3.55471 44.4318 3.48951 44.2441 3.38698C43.2794 2.95934 42.2332 2.74643 41.1781 2.76298C40.2691 2.76298 39.5491 2.90698 39.0541 3.21298C38.5591 3.51298 38.3041 3.98098 38.3041 4.63798C38.3041 5.08498 38.4631 5.46898 38.7841 5.77498C39.1021 6.07798 39.6931 6.38098 40.5391 6.65398L42.8071 7.37398C43.9561 7.74298 44.7871 8.25598 45.2821 8.91298C45.7771 9.56998 46.0141 10.323 46.0141 11.157C46.0141 11.847 45.8731 12.468 45.6001 13.014C45.3175 13.5619 44.9206 14.0427 44.4361 14.424C43.9411 14.823 43.3501 15.114 42.6631 15.321C41.9431 15.546 41.1931 15.657 40.3801 15.657Z" fill="white"/>
<path fill-rule="evenodd" clip-rule="evenodd" d="M43.395 23.439C38.145 27.33 30.513 29.397 23.952 29.397C14.757 29.397 6.47104 25.986 0.213035 20.316C-0.281965 19.866 0.165035 19.257 0.753035 19.611C7.52403 23.55 15.873 25.938 24.513 25.938C30.336 25.938 36.738 24.72 42.63 22.221C43.509 21.822 44.259 22.797 43.395 23.439Z" fill="white"/>
<path fill-rule="evenodd" clip-rule="evenodd" d="M45.582 20.9399C44.913 20.0789 41.145 20.526 39.438 20.733C38.928 20.799 38.847 20.3489 39.309 20.0129C42.309 17.8979 47.244 18.507 47.817 19.212C48.393 19.932 47.658 24.8819 44.847 27.2519C44.418 27.6209 44.004 27.432 44.196 26.952C44.832 25.362 46.254 21.7919 45.582 20.9429V20.9399Z" fill="white"/>
</svg>
