<svg width="46" height="24" viewBox="0 0 46 24" fill="none" xmlns="http://www.w3.org/2000/svg">
<path d="M0.505981 9.61499C0.544981 10.122 0.966481 10.518 1.47948 10.518C1.99248 10.518 2.41398 10.122 2.45298 9.61799V9.61499V7.45049C2.42898 6.93149 2.00298 6.51899 1.47948 6.51899C0.955981 6.51899 0.529981 6.93149 0.505981 7.44899V7.45049V9.61499ZM5.89698 9.61499C5.94198 10.1175 6.36198 10.5075 6.87198 10.5075C7.38198 10.5075 7.80198 10.1175 7.84698 9.61799V9.61349V4.76099C7.82298 4.24199 7.39698 3.82949 6.87348 3.82949C6.34998 3.82949 5.92398 4.24199 5.89998 4.75949V9.61349L5.89698 9.61499ZM11.261 11.571C11.285 12.09 11.711 12.5025 12.2345 12.5025C12.758 12.5025 13.184 12.09 13.208 11.5725V11.571V1.07249C13.184 0.553492 12.758 0.140991 12.2345 0.140991C11.711 0.140991 11.285 0.553491 11.261 1.07099V1.07249V11.571ZM16.6715 9.61499C16.6955 10.134 17.1215 10.5465 17.645 10.5465C18.1685 10.5465 18.5945 10.134 18.6185 9.61649V9.61499V4.76249C18.5945 4.24349 18.1685 3.83099 17.645 3.83099C17.1215 3.83099 16.6955 4.24349 16.6715 4.76099V4.76249V9.61499ZM22.052 9.61499C22.103 10.113 22.5185 10.497 23.0255 10.497C23.5325 10.497 23.9495 10.1115 23.999 9.61799V9.61349V7.44899C23.975 6.92999 23.549 6.51749 23.0255 6.51749C22.502 6.51749 22.076 6.92999 22.052 7.44749V9.61499ZM27.485 9.61499C27.518 10.128 27.941 10.5315 28.46 10.5315C28.979 10.5315 29.402 10.128 29.435 9.61799V9.61499V4.76249C29.411 4.24349 28.985 3.83099 28.4615 3.83099C27.938 3.83099 27.512 4.24349 27.488 4.76099V4.76249V9.61499H27.485ZM32.8055 11.571C32.8445 12.078 33.266 12.474 33.779 12.474C34.292 12.474 34.7135 12.078 34.7525 11.574V11.571V1.07249C34.7285 0.553492 34.3025 0.140991 33.779 0.140991C33.2555 0.140991 32.8295 0.553491 32.8055 1.07099V1.07249V11.571ZM38.2145 9.61499C38.255 10.122 38.6765 10.5195 39.1895 10.5195C39.7025 10.5195 40.1255 10.1235 40.1645 9.61799V9.61499V4.76249C40.1315 4.24949 39.7085 3.84599 39.1895 3.84599C38.6705 3.84599 38.2475 4.24949 38.2145 4.75949V4.76249V9.61499ZM43.5455 9.61499C43.5695 10.134 43.9955 10.5465 44.519 10.5465C45.0425 10.5465 45.4685 10.134 45.4925 9.61649V9.61499V7.45049C45.4685 6.93149 45.0425 6.51899 44.519 6.51899C43.9955 6.51899 43.5695 6.93149 43.5455 7.44899V7.45049V9.61499ZM33.164 19.8015C33.2 22.044 35.027 23.8485 37.274 23.8485C37.589 23.8485 37.895 23.8125 38.189 23.7465L38.162 23.751C40.0325 23.388 41.426 21.762 41.426 19.812C41.426 18.3585 40.652 17.085 39.494 16.3815L39.476 16.371C38.858 15.9825 38.1065 15.753 37.301 15.753C35.048 15.753 33.215 17.5545 33.1655 19.797V19.8015H33.164ZM36.0215 18.201C36.3725 17.913 36.8255 17.739 37.319 17.739C38.453 17.739 39.3725 18.6585 39.3725 19.7925C39.3725 20.433 39.0785 21.006 38.6195 21.3825L38.6165 21.3855L38.585 21.411C38.243 21.6765 37.8065 21.8355 37.334 21.8355C36.2 21.8355 35.279 20.916 35.279 19.7805C35.279 19.146 35.567 18.579 36.0185 18.2025L36.0215 18.1995V18.201ZM13.2245 23.7045H15.1925V15.894H13.2245V23.7045ZM17.864 21.8385L17.8565 23.6325L17.987 23.655C18.335 23.724 18.7625 23.781 19.1945 23.8125L19.2305 23.814C19.4405 23.835 19.685 23.847 19.9325 23.847C20.072 23.847 20.2115 23.8425 20.351 23.835L20.3315 23.8365C20.711 23.808 21.062 23.7375 21.398 23.6325L21.365 23.6415C21.7775 23.523 22.136 23.325 22.439 23.067L22.4345 23.07C22.7105 22.833 22.9235 22.5315 23.054 22.1895L23.0585 22.1745C23.162 21.912 23.2235 21.609 23.2235 21.291C23.2235 20.961 23.159 20.646 23.0405 20.358L23.0465 20.3745C22.9205 20.0655 22.73 19.806 22.49 19.6005L22.487 19.5975C22.2575 19.392 21.983 19.2285 21.683 19.125L21.6665 19.1205L20.3135 18.618C20.1515 18.5475 20.0225 18.4245 19.946 18.27L19.9445 18.2655C19.919 18.21 19.904 18.144 19.904 18.075C19.904 17.994 19.925 17.919 19.961 17.853L19.9595 17.856C20.03 17.742 20.1275 17.652 20.2445 17.592L20.249 17.5905C20.3885 17.5215 20.552 17.472 20.723 17.4525H20.7305C20.8505 17.4345 20.99 17.424 21.1325 17.424C21.296 17.424 21.455 17.4375 21.6095 17.4645L21.593 17.4615C21.9725 17.5035 22.3115 17.5665 22.6415 17.652L22.592 17.6415L22.6625 17.6565V16.0005L22.5335 15.972C22.256 15.9015 21.911 15.837 21.5585 15.795L21.515 15.7905C21.308 15.762 21.068 15.7455 20.8235 15.7455C20.5955 15.7455 20.3705 15.7605 20.15 15.7875L20.177 15.7845C19.589 15.84 19.061 16.065 18.632 16.407L18.638 16.4025C18.344 16.635 18.1175 16.9425 17.984 17.295L17.9795 17.3085C17.8865 17.559 17.8325 17.8485 17.8325 18.1515C17.8325 18.4545 17.8865 18.744 17.9855 19.011L17.9795 18.993C18.086 19.2735 18.2465 19.512 18.4505 19.707H18.452C18.629 19.878 18.8315 20.025 19.0505 20.142L19.0655 20.1495C19.3325 20.295 19.6415 20.4195 19.967 20.508L19.997 20.5155C20.1035 20.547 20.21 20.5815 20.315 20.616L20.474 20.6745L20.519 20.6925C20.684 20.7525 20.825 20.841 20.9435 20.955C21.026 21.0315 21.0905 21.126 21.131 21.2325L21.1325 21.237C21.1445 21.2835 21.152 21.336 21.152 21.3915C21.152 21.444 21.146 21.495 21.1325 21.543L21.134 21.5385C21.0815 21.7005 20.9705 21.831 20.8265 21.9075L20.8235 21.909C20.6735 21.987 20.4995 22.044 20.3165 22.0695L20.3075 22.071C20.132 22.0995 19.928 22.116 19.721 22.116C19.646 22.116 19.571 22.1145 19.496 22.11H19.5065C19.109 22.0785 18.752 22.029 18.401 21.9615L18.4625 21.972C18.2825 21.933 18.103 21.891 17.924 21.846L17.864 21.8385ZM10.508 23.568V21.486L10.4675 21.504C10.0295 21.7215 9.51648 21.858 8.97498 21.8835H8.96598C8.91498 21.888 8.85498 21.8895 8.79498 21.8895C8.28948 21.8895 7.82298 21.72 7.44948 21.435L7.45548 21.4395C7.15248 21.204 6.92298 20.886 6.80148 20.52L6.79698 20.5065C6.72498 20.2965 6.68448 20.055 6.68448 19.803C6.68448 19.608 6.70848 19.4205 6.75498 19.2405L6.75198 19.2555C6.85248 18.822 7.09098 18.4545 7.41798 18.192L7.42098 18.189C7.70748 17.9475 8.06898 17.784 8.46498 17.736L8.47398 17.7345C8.58948 17.721 8.72448 17.7135 8.85948 17.7135C9.44598 17.7135 9.99798 17.859 10.481 18.1155L10.4615 18.1065L10.5065 18.1305V16.0365L10.4105 16.011C9.92298 15.8505 9.36198 15.7575 8.77998 15.7575C8.68698 15.7575 8.59398 15.7605 8.50248 15.765H8.51598C7.89948 15.7815 7.32048 15.921 6.79548 16.1625L6.82248 16.1505C6.27048 16.407 5.80698 16.77 5.44098 17.214L5.43498 17.22C4.87548 17.9235 4.53648 18.825 4.53648 19.806C4.53648 20.742 4.84548 21.606 5.36598 22.302L5.35848 22.2915C5.90298 22.986 6.66198 23.49 7.53648 23.703L7.56348 23.709C7.92948 23.802 8.35098 23.856 8.78448 23.856C9.34398 23.856 9.88248 23.766 10.388 23.601L10.352 23.6115L10.508 23.568ZM31.118 23.568V21.486L31.0775 21.504C30.6395 21.7215 30.1265 21.858 29.585 21.8835H29.576C29.525 21.888 29.4665 21.8895 29.4065 21.8895C28.8995 21.8895 28.433 21.72 28.0595 21.435L28.0655 21.4395C27.7625 21.204 27.533 20.886 27.41 20.52L27.4055 20.5065C27.335 20.298 27.2945 20.0565 27.2945 19.806C27.2945 19.611 27.3185 19.4205 27.365 19.2405L27.362 19.2555C27.464 18.822 27.7025 18.4545 28.028 18.192L28.031 18.189C28.3175 17.9475 28.679 17.784 29.075 17.736L29.084 17.7345C29.1995 17.721 29.3345 17.7135 29.4695 17.7135C30.056 17.7135 30.608 17.859 31.091 18.1155L31.0715 18.1065L31.1165 18.1305V16.0365L31.0205 16.011C30.533 15.8505 29.972 15.7575 29.39 15.7575C29.297 15.7575 29.204 15.7605 29.1125 15.765H29.126C28.5095 15.7815 27.9305 15.921 27.4055 16.1625L27.4325 16.1505C26.8805 16.407 26.4185 16.7685 26.0525 17.214L26.0465 17.2215C25.4855 17.925 25.148 18.825 25.148 19.806C25.148 20.7435 25.457 21.6075 25.9805 22.3035L25.973 22.293C26.5175 22.9875 27.2765 23.49 28.148 23.7045L28.175 23.7105C28.541 23.8035 28.9625 23.8575 29.396 23.8575C29.9555 23.8575 30.494 23.7675 30.9995 23.6025L30.9635 23.613L31.1165 23.5695L31.118 23.568Z" fill="white"/>
</svg>
