<svg width="16" height="13" viewBox="0 0 16 13" fill="none" xmlns="http://www.w3.org/2000/svg">
<path d="M14 9V2.25C14 1.85218 13.8419 1.47064 13.5606 1.18934C13.2793 0.908035 12.8978 0.75 12.5 0.75H3.49999C3.10216 0.75 2.72063 0.908035 2.43932 1.18934C2.15802 1.47064 1.99999 1.85218 1.99999 2.25V9M14 9H1.99999M14 9L14.96 10.9125C15.0178 11.0272 15.0452 11.1549 15.0395 11.2833C15.0338 11.4116 14.9952 11.5364 14.9275 11.6455C14.8597 11.7547 14.765 11.8446 14.6525 11.9067C14.54 11.9688 14.4135 12.0009 14.285 12H1.71499C1.5865 12.0009 1.45994 11.9688 1.34744 11.9067C1.23494 11.8446 1.14028 11.7547 1.07252 11.6455C1.00476 11.5364 0.966181 11.4116 0.960485 11.2833C0.954788 11.1549 0.982163 11.0272 1.03999 10.9125L1.99999 9" stroke="white" stroke-width="1.5" stroke-linecap="round" stroke-linejoin="round"/>
</svg>
