<svg width="32" height="36" viewBox="0 0 32 36" fill="none" xmlns="http://www.w3.org/2000/svg">
<path d="M31.1921 9.85836C31.1921 8.92351 31.1921 0 31.1921 0H0.00234149C0.00234149 0 0.00234149 8.90652 0.00234149 9.85836C0.00234149 10.7932 -0.0486504 12.8499 0.325287 14.9745C0.376279 15.2805 0.750216 17.915 2.00801 20.8895C2.14398 21.2295 3.07883 23.6261 5.25447 26.6516C5.50942 27.0085 7.54908 29.728 9.74172 31.6487C9.99668 31.8697 12.1213 33.9603 15.5887 36C19.0562 33.9603 21.1808 31.8697 21.4358 31.6487C23.6284 29.728 25.6681 27.0085 25.923 26.6516C28.1157 23.6261 29.0335 21.2125 29.1695 20.8895C30.4443 17.915 30.8012 15.2805 30.8522 14.9745C31.2431 12.8499 31.1921 10.7932 31.1921 9.85836Z" fill="black"/>
<path d="M30.7328 10.1472C30.7328 10.0453 30.7328 9.94328 30.7328 9.8413V0.458862H0.460848V9.8413C0.460848 9.92629 0.460848 10.0283 0.460848 10.1472C0.460848 11.1501 0.443851 13.0028 0.766797 14.8725C0.766797 14.8895 0.766797 14.9235 0.783794 14.9574C1.08974 16.9121 1.66765 18.9008 2.43252 20.6685C2.44952 20.6855 2.44952 20.7195 2.48351 20.7705C3.43535 23.0821 4.72714 25.0708 5.64498 26.3455C5.66198 26.3795 7.76963 29.2691 10.0642 31.2747C10.0982 31.2917 10.1322 31.3427 10.2002 31.3937C11.832 32.9065 13.6507 34.2492 15.6223 35.439C17.594 34.2662 19.4127 32.9065 21.0444 31.3937C21.1124 31.3427 21.1464 31.2917 21.1804 31.2747C23.475 29.2691 25.5827 26.3795 25.5997 26.3455C26.5175 25.0708 27.8093 23.0821 28.7611 20.7705C28.7781 20.7195 28.7951 20.6855 28.8121 20.6685C29.577 18.8838 30.1379 16.9121 30.4609 14.9574C30.4609 14.9235 30.4778 14.8895 30.4778 14.8725C30.7498 13.0198 30.7328 11.1501 30.7328 10.1472Z" fill="white"/>
<path d="M5.05059 4.41927C5.05059 4.41927 5.32254 4.57225 5.69648 4.64024C6.07042 4.70822 6.2064 4.74222 6.29138 4.72522C6.39337 4.70822 6.73331 4.67423 7.00526 4.69123C7.27722 4.70823 7.94011 4.74222 8.04209 4.74222C8.14407 4.72522 8.17807 4.75922 8.26305 4.77621C8.34804 4.79321 8.46702 4.8782 8.53501 4.89519C8.603 4.91219 8.65399 4.91219 8.78997 4.8612C8.92594 4.81021 9.24889 4.65723 9.69082 4.65723C10.1327 4.65723 10.5917 4.67423 10.8126 4.67423C11.0336 4.67423 11.5435 4.60624 11.7645 4.47026C11.9854 4.33429 12.0704 4.21531 12.1724 4.21531C12.2744 4.19831 12.3594 4.30029 12.4614 4.40228C12.5633 4.50426 12.6823 4.62324 12.8183 4.64024C12.9543 4.65723 13.1072 4.60624 13.3452 4.62324C13.5832 4.62324 13.9061 4.74222 13.9571 5.06517C14.0081 5.38811 13.9231 5.66007 13.9231 5.86403C13.9231 6.068 14.0081 6.18698 14.1101 6.30596C14.2121 6.42494 14.2461 6.40794 14.382 6.40794C14.501 6.40794 14.841 6.37395 15.0109 6.61191C15.1809 6.84987 15.1299 7.18981 15.0959 7.32579C15.0619 7.46177 14.892 7.54675 14.637 7.58075C14.382 7.61474 14.2121 7.61474 14.1101 7.75072C14.0081 7.8867 14.0081 8.02267 14.0251 8.17565C14.0421 8.32862 14.0081 8.37961 14.0081 8.4476C14.0081 8.51559 13.9911 8.82154 13.9741 9.0595C13.9571 9.29746 13.9401 10.0623 13.9401 10.3513C13.9401 10.6402 13.9231 11.1502 14.0251 11.3201C14.1271 11.4901 14.1951 11.4901 14.399 11.4901C14.603 11.5071 14.9089 11.5071 15.0789 11.6941C15.2659 11.864 15.3169 12 15.2659 12.255C15.2149 12.5099 14.9769 12.7649 14.705 12.7989C14.433 12.8329 14.1101 12.7479 14.0421 12.8329C13.9741 12.9179 13.9061 13.2238 13.9401 13.5128C13.9571 13.8017 13.9911 14.0737 13.9401 14.3116C13.8891 14.5496 13.7701 14.6176 13.4132 14.7026C13.0563 14.7875 12.4614 14.7705 12.1214 14.7705C11.7645 14.7705 11.5265 14.7366 11.3055 14.7366C11.0846 14.7196 10.9486 14.7026 10.7616 14.7536C10.5917 14.8045 10.3027 14.7705 10.0648 14.7705C9.82679 14.7705 9.60583 14.7536 9.50385 14.8045C9.40187 14.8555 9.28289 15.0255 9.1639 15.1275C9.04492 15.2295 8.84096 15.3315 8.586 15.2635C8.31405 15.1955 8.16107 15.0935 8.11008 15.0255C8.05909 14.9575 7.9741 14.8895 7.65116 14.8215C7.32821 14.7536 6.8013 14.7875 6.49535 14.8045C6.1894 14.8215 5.73048 14.8215 5.50951 14.8555C5.28855 14.8895 4.55767 14.9065 4.01376 14.8555C3.46985 14.8045 3.28288 14.6176 3.24889 14.1587C3.23189 13.6997 3.26589 13.2918 3.23189 13.1558C3.1979 13.0368 2.97693 13.0028 2.75597 13.0028C2.53501 13.0028 2.21206 12.9349 2.07608 12.7819C1.92311 12.6289 1.87212 12.238 1.9911 11.949C2.11008 11.6771 2.24606 11.5581 2.586 11.5921C2.92594 11.6261 3.02793 11.6091 3.12991 11.5241C3.23189 11.4391 3.2149 11.3371 3.1979 11.0482C3.1809 10.7422 3.2149 8.85554 3.2149 8.39661C3.2149 7.93769 3.1809 7.8697 3.09592 7.8357C3.01093 7.80171 2.87495 7.80171 2.67099 7.80171C2.46702 7.80171 2.0081 7.66573 1.92311 7.44477C1.83812 7.22381 1.87212 6.76488 2.11008 6.59491C2.34804 6.42494 2.586 6.40794 2.87495 6.40794C3.1639 6.40794 3.23189 6.40794 3.24889 6.15298C3.26589 5.89803 3.28288 5.15015 3.29988 5.09916C3.31688 5.04817 3.40186 4.74222 3.7758 4.74222C4.13274 4.74222 4.33671 4.74222 4.43869 4.70823C4.54067 4.67423 4.60866 4.53825 4.67665 4.45327C4.74464 4.31729 4.81263 4.2323 5.05059 4.41927Z" fill="black"/>
<path d="M5.50915 4.96333C5.50915 4.96333 5.74711 5.1163 6.32501 5.1163C6.90292 5.1333 7.12388 5.16729 7.29385 5.1163C7.46382 5.06531 7.65079 5.03132 7.82076 5.08231C7.99074 5.1163 8.17771 5.20129 8.2287 5.28627C8.27969 5.37126 8.33068 5.49024 8.33068 5.52423C8.34768 5.55823 8.36467 6.25511 8.36467 6.39109C8.36467 6.52707 8.38167 7.78486 8.36467 8.37976C8.34768 8.97466 8.31368 10.6914 8.31368 11.0653C8.31368 11.4392 8.29669 12.3741 8.33068 12.646C8.36467 12.901 8.41566 12.969 8.38167 13.02C8.34768 13.071 8.31368 13.156 8.1947 13.105C8.09272 13.071 7.76977 13.003 7.12388 12.952C6.47799 12.901 6.10405 12.952 5.86609 12.969C5.62813 12.986 5.28819 12.952 5.16921 12.799C5.03323 12.646 5.08422 12.5271 5.10122 12.4761C5.11821 12.4251 5.08422 12.2721 5.08422 12.0002C5.08422 11.7282 5.08422 9.96049 5.06722 9.60355C5.05023 9.24661 5.05023 7.39392 5.06722 7.00299C5.08422 6.61205 5.10122 6.49307 5.10122 6.42508C5.10122 6.35709 5.05023 6.13613 5.06722 5.86418C5.08422 5.59222 5.08422 5.40525 5.06722 5.32027C5.05023 5.23528 5.03323 5.08231 5.11821 4.99732C5.2032 4.91234 5.37317 4.91234 5.50915 4.96333Z" fill="white"/>
<path d="M4.72735 5.6942C4.72735 5.6942 4.71035 6.20411 4.69336 6.44207C4.67636 6.68003 4.65936 7.12196 4.65936 7.25794C4.65936 7.39391 4.67636 7.68286 4.67636 8.00581C4.67636 8.32876 4.67636 9.94349 4.67636 10.2494C4.67636 10.5554 4.67636 12.2211 4.67636 12.3401C4.67636 12.4591 4.71035 12.782 4.64237 13.02C4.55738 13.2579 4.38741 13.3599 4.33642 13.3939C4.28543 13.4279 4.21744 13.3769 4.21744 13.2409C4.21744 13.105 4.23443 13.02 4.21744 12.884C4.20044 12.748 4.20044 11.8642 4.20044 11.7282C4.20044 11.5922 4.20044 9.46757 4.20044 9.2976C4.20044 9.12762 4.21744 7.05397 4.21744 6.95199C4.21744 6.85 4.21744 6.03414 4.21744 5.88117C4.21744 5.74519 4.26843 5.52423 4.37041 5.33726C4.47239 5.15029 4.60837 5.13329 4.65936 5.16728C4.71036 5.20128 4.76135 5.25227 4.69336 5.32026C4.62537 5.38825 4.64237 5.49023 4.67636 5.52422C4.71036 5.57522 4.72735 5.62621 4.72735 5.6942Z" fill="white"/>
<path d="M3.92921 5.72821C3.92921 5.72821 3.89522 6.15314 3.89522 6.3741C3.89522 6.59506 3.87822 8.7877 3.89522 8.97467C3.89522 9.16164 3.89522 11.5412 3.89522 11.6942C3.89522 11.8472 3.91221 12.5441 3.91221 12.6121C3.91221 12.68 3.92921 13.4109 3.9632 13.6149C3.9802 13.8189 4.11618 13.9378 4.33714 13.9888C4.55811 14.0398 5.17 14.0228 5.42496 14.0228C5.66292 14.0228 5.83289 14.0568 6.15584 14.0398C6.47879 14.0228 7.34564 14.0398 7.54961 14.0398C7.75357 14.0398 7.88955 14.0568 7.92354 14.1588C7.95754 14.2608 7.90655 14.3798 7.6176 14.3798C7.32864 14.3968 5.98587 14.3628 5.71391 14.3798C5.44196 14.3968 4.28615 14.3458 4.08218 14.3458C3.87822 14.3458 3.65725 14.2948 3.62326 13.8868C3.60626 13.4789 3.60626 12.816 3.58927 12.714C3.57227 12.6121 3.45329 12.5101 3.06235 12.5101C2.67142 12.5101 2.46745 12.4421 2.38247 12.3061C2.29748 12.1701 2.38247 11.8812 2.8074 11.8812C3.23233 11.8812 3.3683 11.8812 3.45329 11.8132C3.53827 11.7452 3.58927 11.6942 3.58927 11.1333C3.58927 10.5724 3.62326 8.73671 3.62326 8.58373C3.60626 8.43076 3.65725 8.05682 3.62326 7.85285C3.58927 7.64889 3.53827 7.41093 3.3683 7.37693C3.21533 7.34294 2.82439 7.41093 2.53544 7.35994C2.24649 7.30894 2.1955 7.10498 2.29748 6.969C2.39946 6.83302 2.50145 6.71404 2.87539 6.73104C3.24932 6.74804 3.3853 6.71404 3.47029 6.57807C3.55527 6.44209 3.62326 6.23812 3.62326 5.94917C3.62326 5.66022 3.64026 5.42226 3.72524 5.26928C3.82723 5.11631 3.89522 5.06532 3.9972 5.13331C4.08218 5.2013 4.08218 5.28628 4.04819 5.37127C3.9972 5.47325 3.94621 5.57523 3.92921 5.72821Z" fill="#B7B7B7"/>
<path d="M6.05344 13.3429C6.05344 13.3429 7.15826 13.3259 7.39622 13.3429C7.63418 13.3599 7.85514 13.3599 8.00812 13.4449C8.14409 13.5298 8.16109 13.6318 8.1101 13.6998C8.0761 13.7678 8.02511 13.8018 7.87214 13.7678C7.71916 13.7338 7.22625 13.6828 6.85231 13.7168C6.47837 13.7338 5.6965 13.7508 5.33956 13.7508C4.99962 13.7508 5.06761 13.7168 4.93163 13.7168C4.79565 13.7168 4.65967 13.7168 4.60868 13.6318C4.55769 13.5468 4.62568 13.3939 4.74466 13.2749C4.86364 13.1559 4.98262 13.1219 5.1186 13.1729C5.25457 13.2409 5.25457 13.2919 5.54353 13.3259C5.84948 13.3599 6.05344 13.3429 6.05344 13.3429Z" fill="white"/>
<path d="M8.80649 13.8698C8.80649 13.8698 9.04445 13.9718 9.09544 14.2097C9.14643 14.4477 9.07844 14.7367 8.87448 14.8046C8.68751 14.8726 8.51754 14.8216 8.39856 14.7027C8.33057 14.6177 8.33057 14.5837 8.33057 14.4817C8.33057 14.3797 8.33057 14.2437 8.33057 14.1928C8.33057 14.1418 8.36456 14.0398 8.46654 13.9378C8.55153 13.8528 8.67051 13.7848 8.80649 13.8698Z" fill="#B7B7B7"/>
<path d="M9.53799 14.3456C9.53799 14.3456 9.60598 14.3796 9.72496 14.3626C9.84394 14.3456 9.89493 14.3456 9.97991 14.3626C10.0649 14.3796 10.1669 14.3966 10.4728 14.3626C10.7788 14.3286 11.1527 14.3456 11.3057 14.3456C11.4587 14.3456 12.6315 14.3286 12.9374 14.3116C13.2434 14.2946 13.3454 14.2946 13.4303 14.2097C13.5323 14.1247 13.5153 13.9377 13.5153 13.7847C13.5153 13.6148 13.5663 12.7479 13.6003 12.6629C13.6343 12.5779 13.7703 12.391 14.0082 12.391C14.2462 12.391 14.5522 12.425 14.7051 12.357C14.8581 12.272 14.8921 12.102 14.7901 11.983C14.6881 11.881 14.6541 11.8301 14.2802 11.8301C13.9063 11.8301 13.8723 11.8301 13.7363 11.7281C13.6003 11.6431 13.5663 11.2352 13.5663 11.0312C13.5493 10.8272 13.6003 9.36547 13.6003 9.1785C13.6003 8.99153 13.6513 7.63175 13.6853 7.52977C13.7193 7.42779 13.7533 7.27481 13.9912 7.27481C14.2292 7.27481 14.5352 7.29181 14.6711 7.15583C14.8241 7.01986 14.7221 6.83289 14.6031 6.7819C14.4672 6.7309 14.2292 6.71391 14.0422 6.71391C13.8553 6.71391 13.7023 6.66292 13.6513 6.54394C13.6003 6.44195 13.6003 5.67708 13.6003 5.50711C13.6003 5.33714 13.5663 5.06518 13.3963 5.01419C13.2094 4.9632 13.0904 5.11617 13.0904 5.11617C13.0904 5.11617 13.1924 5.40513 13.1924 6.01702C13.1924 6.62892 13.2264 7.03685 13.2264 7.3598C13.2264 7.68275 13.2264 9.05952 13.2264 9.36547C13.2264 9.67141 13.1754 11.2861 13.1924 11.5411C13.2094 11.7961 13.2264 12.5269 13.2264 12.8839C13.2264 13.2408 13.1754 13.5808 13.1244 13.6997C13.0734 13.8187 12.8864 13.9887 12.5805 14.0057C12.2575 14.0227 11.8836 13.9717 11.6966 13.9887C11.5097 14.0057 11.0507 14.0227 10.8468 14.0227C10.6428 14.0227 9.99691 14.0057 9.84394 14.0397C9.69096 14.0567 9.453 14.0907 9.453 14.1757C9.453 14.2607 9.47 14.3116 9.53799 14.3456Z" fill="#B7B7B7"/>
<path d="M11.3057 13.7168C11.3057 13.7168 12.3936 13.7338 12.5295 13.7168C12.6655 13.6999 12.6995 13.6489 12.6995 13.6149C12.6995 13.5809 12.6995 13.5299 12.6655 13.4959C12.6315 13.4619 12.5635 13.3429 12.5125 13.2749C12.4616 13.2069 12.3936 13.1219 12.3086 13.1219C12.2236 13.1219 12.0876 13.1729 11.9516 13.2239C11.8157 13.2749 11.3227 13.3599 10.7788 13.3769C10.2349 13.3939 9.86099 13.4109 9.75901 13.4109C9.65702 13.3939 9.40207 13.3259 9.26609 13.3599C9.13011 13.3939 8.94314 13.4789 9.01113 13.6149C9.07912 13.7508 9.1811 13.8188 9.36807 13.8188C9.55504 13.8188 9.69102 13.7678 9.81 13.7678C9.92898 13.7678 9.97997 13.8018 10.1159 13.8018C10.2519 13.8018 10.5409 13.7678 10.6769 13.7678C10.8468 13.7168 11.2378 13.6999 11.3057 13.7168Z" fill="white"/>
<path d="M12.9033 12.8668C12.9033 12.8668 12.8863 5.91495 12.9033 5.77897C12.9033 5.643 12.9203 5.55801 12.7843 5.32005C12.6483 5.08209 12.5803 5.0481 12.4953 5.0481C12.4103 5.0481 12.3593 5.20107 12.3933 5.33705C12.4273 5.47303 12.4273 5.93195 12.4103 6.27189C12.4103 6.61184 12.4103 8.75348 12.4103 8.94045C12.4103 9.12742 12.3763 11.354 12.3933 11.558C12.4103 11.779 12.3763 12.2379 12.3933 12.3739C12.4103 12.5268 12.4273 12.6288 12.5123 12.7988C12.5973 12.9688 12.7333 13.0538 12.7843 13.0878C12.8353 13.1387 12.8863 13.1048 12.9033 12.9858C12.9033 12.9008 12.9033 12.8668 12.9033 12.8668Z" fill="white"/>
<path d="M9.6054 5.09916C9.6054 5.09916 10.6762 5.09916 10.8462 5.09916C11.0162 5.09916 11.3561 5.06517 11.6281 4.94619C11.9 4.8442 11.934 4.79321 11.934 4.79321C11.934 4.79321 12.07 4.8952 12.07 4.91219C12.07 4.92919 12.087 5.21814 12.087 5.33712C12.087 5.4731 12.053 5.67707 12.053 5.93202C12.036 6.18698 12.104 7.8867 12.087 8.03967C12.07 8.20964 12.07 8.78755 12.053 8.99151C12.036 9.19548 12.07 11.796 12.07 11.949C12.07 12.102 12.087 12.4589 12.053 12.5949C12.019 12.7309 11.917 12.8159 11.866 12.8329C11.815 12.8499 11.5941 12.9009 11.4921 12.9179C11.4071 12.9349 11.1181 12.9349 10.8802 12.9349C10.6422 12.9179 9.89435 12.9349 9.5714 12.9519C9.24846 12.9689 8.92551 13.0028 8.85752 13.0198C8.77254 13.0368 8.73854 12.9858 8.70455 12.9349C8.67056 12.8839 8.67056 12.7139 8.70455 12.5779C8.73854 12.4249 8.75554 12.3909 8.75554 12.238C8.75554 12.068 8.70455 9.85837 8.68755 9.6544C8.67056 9.45044 8.67056 7.46177 8.68755 7.18981C8.70455 6.91786 8.73854 6.32296 8.72155 6.15299C8.70455 5.98301 8.70455 5.76205 8.73854 5.57508C8.77254 5.38811 8.87452 5.18415 9.11248 5.13316C9.35044 5.08216 9.6054 5.09916 9.6054 5.09916Z" fill="white"/>
<path d="M5.67906 7.88673C5.67906 7.88673 5.71305 7.93772 6.036 8.83857C6.35894 9.73942 6.35894 9.82441 6.39294 9.8924C6.42693 9.96039 6.46093 10.0114 6.47792 10.1134C6.49492 10.2153 6.54591 10.5043 6.68189 10.6403C6.81787 10.7763 6.91985 10.8272 6.98784 10.7932C7.05583 10.7423 7.12381 10.7253 7.1918 10.4193C7.27679 10.1134 7.8037 8.22667 7.8207 8.0907C7.85469 7.95472 7.95668 7.61478 8.02467 7.54679C8.09265 7.4788 8.09265 7.41081 8.09265 7.35982C8.09265 7.32582 7.95668 7.24084 7.7867 7.22384C7.61673 7.20684 7.48076 7.25784 7.42976 7.32582C7.37877 7.39381 7.39577 7.4618 7.46376 7.56379C7.53175 7.66577 7.56574 7.93772 7.51475 8.14169C7.46376 8.34566 7.27679 9.02554 7.25979 9.14452C7.2428 9.2635 7.2258 9.43347 7.14081 9.55245C7.05583 9.67143 6.95384 9.70543 6.90285 9.62044C6.86886 9.53546 6.76688 9.31449 6.71588 9.19551C6.68189 9.07653 6.47792 8.44764 6.40993 8.26067C6.34195 8.0737 6.27396 7.85274 6.27396 7.78475C6.27396 7.71676 6.34195 7.63177 6.40993 7.52979C6.47792 7.42781 6.49492 7.34282 6.40993 7.27483C6.32495 7.20684 6.23996 7.18985 6.05299 7.17285C5.86602 7.15585 5.79804 7.18985 5.67906 7.18985C5.56008 7.18985 5.3901 7.18985 5.32212 7.25784C5.25413 7.32582 5.25413 7.39381 5.33911 7.4618C5.4241 7.52979 5.59407 7.66577 5.67906 7.88673Z" fill="black"/>
<path d="M9.232 7.54682C9.232 7.54682 9.36798 7.6828 9.40197 7.75079C9.43597 7.81878 9.45297 7.90376 9.45297 8.02274C9.45297 8.14172 9.45297 9.70546 9.45297 9.82444C9.45297 9.94342 9.41897 10.1304 9.41897 10.2154C9.41897 10.3004 9.43597 10.3174 9.36798 10.4363C9.29999 10.5553 9.19801 10.6913 9.232 10.7593C9.266 10.8103 9.35098 10.8613 9.53795 10.8613C9.70792 10.8613 10.1668 10.8783 10.3028 10.8953C10.4388 10.9123 10.8297 10.9463 10.9487 10.9123C11.0677 10.8783 11.1867 10.8103 11.2717 10.6573C11.3397 10.5043 11.3566 10.3853 11.3227 10.2494C11.2887 10.1134 11.1867 10.0794 11.1527 10.0794C11.1187 10.0794 11.0847 10.1134 11.0507 10.1644C11.0337 10.2154 10.9657 10.4023 10.8467 10.4873C10.7278 10.5553 10.6598 10.5723 10.4898 10.5723C10.3198 10.5723 10.2178 10.5893 10.0989 10.5553C9.99688 10.5213 9.96288 10.4873 9.94588 10.3174C9.92889 10.1474 9.8269 9.4845 9.91189 9.26354C9.99688 9.04257 10.1329 8.94059 10.2688 9.00858C10.4048 9.07657 10.5578 9.17855 10.6258 9.19555C10.6938 9.21254 10.8467 9.07657 10.8637 8.95759C10.8807 8.83861 10.8467 8.60065 10.7787 8.56665C10.7108 8.53266 10.6428 8.58365 10.5408 8.65164C10.4388 8.71963 10.3198 8.80461 10.2348 8.80461C10.1668 8.80461 9.99688 8.71963 9.94588 8.56665C9.89489 8.41368 9.92889 7.93776 9.94588 7.81878C9.96288 7.6998 10.0989 7.56382 10.2858 7.54682C10.4728 7.54682 10.5918 7.6488 10.7108 7.75079C10.8297 7.85277 10.9147 7.92076 10.9657 7.86977C11.0167 7.81878 11.0337 7.63181 10.9997 7.56382C10.9657 7.49583 10.8807 7.29186 10.8297 7.25787C10.7787 7.22387 10.7617 7.18988 10.6258 7.18988C10.4898 7.18988 9.80991 7.22388 9.63993 7.24087C9.48696 7.25787 9.28299 7.29186 9.21501 7.30886C9.18101 7.32586 9.13002 7.44484 9.232 7.54682Z" fill="black"/>
<path d="M17.7134 18.4759C17.7134 18.4759 18.5803 18.4759 18.9032 18.4249C19.2262 18.3739 19.5831 18.3059 19.974 18.1019C19.974 18.1019 20.399 18.1869 20.5179 18.2379C20.6539 18.2889 20.7559 18.3399 20.7899 18.3909C20.7899 18.3909 21.4018 18.3739 21.5378 18.3739C21.6738 18.3739 22.0137 18.4929 22.0987 18.7478C22.1837 19.0028 22.0477 19.5127 22.0647 19.6827C22.0647 19.8356 22.0307 20.0906 22.3536 20.1416C22.6766 20.1926 22.9485 20.1076 23.1185 20.2266C23.2885 20.3456 23.4415 20.6345 23.4245 20.8555C23.4075 21.0764 23.2545 21.2464 23.0845 21.3144C22.9145 21.3824 22.5576 21.4504 22.2857 21.4504L22.1327 21.6543C22.1327 21.6543 22.0987 23.1671 22.1157 23.575C22.1157 23.9659 22.1157 24.7818 22.0987 24.9008C22.0817 25.0198 22.0647 25.1048 22.1497 25.1727C22.2347 25.2407 22.4046 25.2747 22.5236 25.2747C22.6426 25.2747 22.7956 25.2237 22.9485 25.2747C23.1015 25.3257 23.4585 25.4957 23.5094 25.7167C23.5604 25.9376 23.5094 26.2606 23.3735 26.3965C23.2205 26.5325 22.9315 26.6005 22.6426 26.6345C22.3366 26.6685 22.2687 26.6855 22.2177 26.7705C22.1667 26.8725 22.1327 27.1444 22.1327 27.2294C22.1327 27.3144 22.1667 27.8583 22.1497 28.0113C22.1327 28.1642 22.0307 28.4192 21.9287 28.4702C21.8267 28.5042 21.4698 28.5892 21.3168 28.6062C21.1638 28.6232 19.7361 28.6232 19.4301 28.6402C19.1072 28.6572 18.1723 28.6572 18.0194 28.6742C17.8494 28.6912 17.8664 28.7082 17.8154 28.6742C17.7644 28.6402 17.6964 28.6402 17.5604 28.6402C17.4245 28.6402 16.8636 28.6742 16.7276 28.6572C16.5916 28.6402 16.2857 28.6402 16.0817 28.7252C15.8777 28.8101 15.7757 28.8781 15.7077 28.9121C15.6568 28.9461 15.6228 28.9631 15.4188 28.9631C15.2148 28.9631 15.0619 28.8781 14.9429 28.7931C14.8239 28.7082 14.6709 28.6062 14.6709 28.6062C14.6709 28.6062 13.6851 28.6232 13.4131 28.6402C13.1412 28.6402 12.4443 28.6232 12.3423 28.6402C12.2233 28.6572 12.0874 28.7082 12.0024 28.7082C11.9344 28.7082 11.9344 28.6742 11.8834 28.6742C11.8324 28.6742 11.3225 28.6912 11.2375 28.7082C11.1525 28.7252 10.7616 28.7422 10.6596 28.7082C10.5576 28.6742 10.4216 28.7082 10.2687 28.7082C10.1327 28.7252 10.0137 28.7761 9.79273 28.7252C9.58877 28.6742 9.46979 28.6742 9.31681 28.6572C9.16384 28.6402 8.89188 28.5042 8.89188 28.2152C8.89188 27.9263 8.87489 27.5693 8.87489 27.3824C8.87489 27.1954 8.89188 26.9235 8.8069 26.8215C8.72191 26.7195 8.63693 26.6855 8.39897 26.6855C8.16101 26.6855 7.78707 26.6855 7.56611 26.5155C7.34514 26.3456 7.34514 26.0566 7.39613 25.8526C7.44713 25.6487 7.71908 25.3427 8.09302 25.3597C8.46695 25.3767 8.68792 25.3937 8.75591 25.3087C8.8239 25.2237 8.84089 25.1048 8.8239 25.0028C8.8069 24.9008 8.8069 24.7988 8.8239 24.7138C8.84089 24.6288 8.84089 24.2039 8.8239 24.1019C8.8069 24.0169 8.8069 23.677 8.8239 23.507C8.84089 23.3371 8.8239 22.0113 8.8239 21.9093C8.8239 21.8073 8.8239 21.6543 8.73891 21.6033C8.65392 21.5524 8.51795 21.5863 8.33098 21.5693C8.14401 21.5524 7.70208 21.4844 7.51511 21.3484C7.32814 21.1954 7.24316 20.9574 7.34514 20.6515C7.44712 20.3456 7.77007 20.1926 8.14401 20.1926C8.50095 20.1926 8.72191 20.2266 8.7899 20.1246C8.87489 20.0226 8.87489 19.7337 8.87489 19.5807C8.87489 19.4277 8.8239 19.0878 8.84089 18.9008C8.85789 18.7138 8.92588 18.4929 9.33381 18.4759C9.74174 18.4759 9.96271 18.4759 10.0987 18.4589C10.2347 18.4249 10.3196 18.2549 10.4046 18.1359C10.4896 18.0169 10.5916 17.9489 10.7106 18.0169C10.8296 18.0849 11.0505 18.3059 11.4925 18.3739C11.9344 18.4419 12.3253 18.4589 12.8522 18.4249C13.3791 18.3909 13.923 18.3399 14.314 18.3399C14.7049 18.3399 14.8749 18.3909 14.9769 18.4249C15.0789 18.4589 15.3848 18.6118 15.3848 18.6118C15.3848 18.6118 15.6058 18.3569 16.0307 18.3569C16.4556 18.4079 17.3905 18.4419 17.7134 18.4759Z" fill="black"/>
<path d="M17.3221 18.8159C17.3221 18.8159 18.1039 18.8669 18.5459 18.8499C18.9878 18.8329 19.3787 18.7649 19.6167 18.6629C19.8546 18.5609 19.8716 18.5439 19.9736 18.5439C20.0756 18.5439 20.1436 18.5779 20.1776 18.6289C20.1946 18.6799 20.1436 19.0879 20.1266 19.3088C20.1096 19.5298 20.1096 19.9887 20.1096 20.3117C20.1096 20.6346 20.1606 22.0624 20.1606 22.2833C20.1606 22.5043 20.1606 23.8641 20.1606 24.034C20.1606 24.204 20.1436 25.6148 20.1436 25.7677C20.1436 25.9207 20.1436 26.2097 20.1436 26.2607C20.1436 26.3117 20.1266 26.4476 19.9396 26.5496C19.7527 26.6516 19.4467 26.7196 19.1238 26.7366C18.8008 26.7536 17.1181 26.7366 16.8121 26.7366C16.4892 26.7366 16.2002 26.7196 16.0983 26.7706C15.9963 26.8386 15.8773 26.9066 15.7583 26.9066C15.6393 26.9066 15.5544 26.9066 15.5544 26.7366C15.5544 26.5836 15.6223 26.3966 15.6223 26.2607C15.6223 26.1247 15.5544 26.0227 15.5713 25.9547C15.5883 25.8867 15.6053 25.3938 15.5883 25.2238C15.5713 25.0539 15.5713 24.289 15.5544 24.153C15.5374 24.017 15.5204 23.5581 15.5713 23.4051C15.6223 23.2522 15.7243 23.2692 15.7923 23.3202C15.8603 23.3711 16.0303 23.7621 16.0303 23.966C16.0303 24.17 15.9793 24.306 15.9793 24.357C15.9793 24.408 15.9963 24.493 16.1832 24.493C16.3702 24.51 16.5232 24.493 16.6082 24.51C16.6762 24.527 16.8121 24.527 16.8801 24.51C16.9651 24.476 17.0671 24.442 17.0331 24.357C16.9991 24.272 16.7951 24.102 16.6932 24C16.5742 23.8981 16.5402 23.7961 16.5232 23.6771C16.5232 23.5751 16.4042 23.0992 16.3022 22.8272C16.2002 22.5553 16.0473 22.1473 16.0303 21.9774C16.0133 21.8074 15.8433 21.2125 15.7753 21.0595C15.7073 20.9066 15.6223 20.6686 15.6223 20.5666C15.6223 20.4646 15.6223 19.1218 15.6223 19.0539C15.6223 18.9859 15.7413 18.8329 15.9453 18.7989C16.1493 18.7649 16.2512 18.7479 16.3532 18.7479C16.4382 18.7479 16.8461 18.7479 16.9481 18.7479C17.0331 18.7819 17.3221 18.8159 17.3221 18.8159Z" fill="white"/>
<path d="M14.6538 18.8328C14.6538 18.8328 14.2629 18.7819 13.9739 18.7649C13.685 18.7649 12.8691 18.8158 12.4612 18.8498C12.0362 18.8668 11.6453 18.8668 11.4413 18.7988C11.2374 18.7309 10.9144 18.6119 10.8464 18.6119C10.7784 18.6119 10.7275 18.6799 10.7105 18.7988C10.6935 18.9348 10.7275 19.1898 10.7614 19.6317C10.7784 20.0736 10.7614 20.7705 10.7444 21.0425C10.7275 21.3314 10.7614 22.5722 10.7444 22.7762C10.7444 22.9801 10.7444 24.6629 10.7444 24.8158C10.7614 24.9688 10.7275 26.3626 10.7444 26.3966C10.7614 26.4306 10.8124 26.5326 11.0164 26.6175C11.2034 26.7025 11.4753 26.7535 11.8323 26.7535C12.2062 26.7535 12.7841 26.7705 12.9201 26.7705C13.0561 26.7705 13.668 26.7705 13.7869 26.7705C13.9059 26.7535 14.3139 26.7535 14.4668 26.7535C14.6028 26.7705 14.7558 26.8045 14.8918 26.8045C15.0277 26.8045 15.1297 26.7875 15.1637 26.7365C15.1807 26.6855 15.1977 26.6175 15.1977 26.5156C15.1977 26.4136 15.1977 25.6657 15.1977 25.5297C15.1977 25.3937 15.1637 24.5269 15.1807 24.2889C15.1977 24.051 15.1977 23.609 15.1807 23.4901C15.1637 23.3711 15.1467 23.2861 15.0107 23.2861C14.8748 23.2861 14.8068 23.3711 14.7388 23.5071C14.6708 23.643 14.6708 23.847 14.6878 24.051C14.7048 24.2549 14.7388 24.3399 14.7218 24.4249C14.7048 24.5099 14.6198 24.5439 14.5008 24.5439C14.3818 24.5439 14.1099 24.5779 13.9739 24.5099C13.8549 24.4419 13.8719 24.3229 13.9739 24.2549C14.0759 24.187 14.2289 24.17 14.2629 24.034C14.3139 23.898 14.6028 22.7762 14.6538 22.5382C14.7048 22.3003 14.8748 21.7224 14.9258 21.5354C14.9767 21.3484 15.1127 20.8045 15.1127 20.6005C15.1127 20.3966 15.1127 19.7677 15.1297 19.5807C15.1467 19.3768 15.1467 19.1558 15.0787 19.0538C15.0107 18.9518 14.8918 18.8498 14.6538 18.8328Z" fill="white"/>
<path d="M15.282 22.1644C15.282 22.1644 15.214 22.5554 15.214 22.7083C15.214 22.8783 15.231 22.9293 15.129 22.9633C15.027 22.9973 14.925 22.9293 14.925 22.6913C14.925 22.4534 15.044 22.1304 15.078 22.0284C15.112 21.9265 15.163 21.9095 15.197 21.9435C15.231 21.9775 15.299 22.0964 15.282 22.1644Z" fill="white"/>
<path d="M15.6392 22.8952C15.6392 22.8952 15.7072 22.8272 15.6902 22.7762C15.6732 22.7252 15.5712 22.6232 15.5372 22.7082C15.5032 22.7932 15.5202 22.8442 15.5372 22.8952C15.5372 22.9461 15.5882 22.9461 15.6392 22.8952Z" fill="white"/>
<path d="M13.4642 21.2464C13.4642 21.2464 13.5832 21.4503 13.6852 21.4843C13.7871 21.5183 13.9061 21.3993 13.9231 21.2634C13.9401 21.1274 13.9401 20.9744 13.9741 20.8894C14.0081 20.8044 14.0251 20.7705 13.9571 20.7195C13.8891 20.6685 13.8211 20.6345 13.7701 20.6685C13.7192 20.7025 13.6002 20.8044 13.3962 20.8214C13.2092 20.8384 13.1073 20.8384 12.9713 20.8214C12.8353 20.8044 12.5294 20.8214 12.4274 20.8384C12.3254 20.8554 12.2064 20.8214 12.0874 20.7535C11.9684 20.6855 11.8835 20.6685 11.8495 20.6855C11.8155 20.7025 11.7815 20.7025 11.7305 20.8384C11.6795 20.9744 11.5775 21.2464 11.5775 21.3484C11.5775 21.4503 11.5945 21.5523 11.6455 21.5863C11.6965 21.6203 11.7645 21.6033 11.8155 21.5183C11.8665 21.4503 11.9685 21.2804 12.1384 21.1954C12.3084 21.1104 12.3594 21.1104 12.4274 21.1444C12.4954 21.1784 12.5803 21.2634 12.5973 21.3314C12.6143 21.3993 12.5634 21.8243 12.5634 22.0622C12.5634 22.3002 12.5464 23.439 12.5634 23.592C12.5803 23.728 12.5973 23.9149 12.5803 23.9489C12.5803 23.9659 12.4104 24.1529 12.3424 24.2719C12.2744 24.3908 12.2744 24.4758 12.3594 24.5438C12.4274 24.6118 12.5803 24.6288 12.6653 24.5948C12.7503 24.5608 12.8013 24.5778 12.8693 24.5778C12.9373 24.5778 13.1413 24.6288 13.2602 24.5438C13.3792 24.4418 13.4132 24.3569 13.3452 24.2719C13.2772 24.1869 13.2092 24.1359 13.1922 24.0509C13.1752 23.9659 13.1583 22.7931 13.1413 22.6061C13.1243 22.4192 13.1073 22.1812 13.1073 22.1302C13.1243 22.0792 13.1413 21.8923 13.1243 21.7733C13.1073 21.6543 13.0903 21.4673 13.1073 21.4333C13.1413 21.3823 13.2262 21.0254 13.4642 21.2464Z" fill="black"/>
<path d="M10.3193 19.7846C10.3193 19.7846 10.3363 22.8951 10.3363 22.9971C10.3363 23.099 10.3533 26.1245 10.3533 26.2435C10.3533 26.3455 10.3533 26.5325 10.2513 26.7534C10.1493 26.9744 10.0133 27.0764 9.97933 27.0934C9.94534 27.1104 9.92834 27.0934 9.89435 27.0594C9.86035 27.0254 9.86035 26.9574 9.86035 26.8044C9.86035 26.6515 9.87735 25.1387 9.87735 24.9687C9.87735 24.7988 9.86035 22.9121 9.86035 22.7421C9.86035 22.5721 9.86035 20.6855 9.86035 20.6515C9.86035 20.6005 9.86035 19.6146 9.86035 19.5296C9.86035 19.4617 9.87735 19.4107 9.91134 19.3427C9.94534 19.2747 10.0813 19.0537 10.1153 19.0367C10.1493 19.0027 10.2003 19.0027 10.2513 19.0367C10.3023 19.0707 10.3533 19.1217 10.3193 19.2747C10.3023 19.4277 10.2683 19.5126 10.2853 19.6146C10.3363 19.6996 10.3193 19.7846 10.3193 19.7846Z" fill="white"/>
<path d="M9.79226 19.1216C9.79226 19.1216 9.67328 19.2916 9.63928 19.3936C9.58829 19.4956 9.57129 19.5465 9.57129 19.8865C9.57129 20.2094 9.57129 21.2293 9.57129 21.3652C9.57129 21.5012 9.60529 22.4531 9.60529 22.657C9.60529 22.861 9.60529 24.4417 9.58829 24.5777C9.58829 24.7307 9.57129 25.5466 9.57129 25.7335C9.57129 25.9035 9.58829 26.5664 9.60529 26.7364C9.62228 26.9063 9.63928 27.6202 9.63928 27.6712C9.63928 27.7222 9.67328 27.7732 9.69027 27.7902C9.72427 27.8072 9.75826 27.8582 9.82625 27.8582C9.89424 27.8582 10.9311 27.8412 11.169 27.8242C11.407 27.8072 12.3928 27.7732 12.6818 27.8072C12.9707 27.8412 14.0245 27.8582 14.1945 27.8582C14.3645 27.8582 14.5175 27.8582 14.5345 27.8752C14.5515 27.8922 14.5855 27.9941 14.5855 28.0451C14.5855 28.0961 14.4665 28.1471 14.3475 28.1641C14.2285 28.1811 13.2597 28.1981 13.1067 28.2151C12.9537 28.2151 12.3418 28.2661 12.2059 28.2661C12.0699 28.2661 11.7469 28.2151 11.577 28.2151C11.407 28.2151 10.3362 28.2831 10.1832 28.3001C10.0302 28.3171 9.69027 28.3001 9.58829 28.3001C9.48631 28.3001 9.41832 28.2661 9.31633 28.1641C9.23135 28.0621 9.21435 27.9432 9.19735 27.7052C9.19735 27.4842 9.21435 26.8723 9.12937 26.6854C9.04438 26.4984 8.85741 26.3794 8.53447 26.3624C8.21152 26.3624 7.92257 26.3284 7.82058 26.2094C7.7016 26.0905 7.78659 25.9035 7.95656 25.8355C8.12653 25.7675 8.60245 25.7505 8.73843 25.7335C8.85741 25.7335 9.01039 25.7335 9.06138 25.6145C9.11237 25.5126 9.14636 25.3426 9.16336 25.0196C9.18036 24.6967 9.18036 23.2689 9.16336 23.048C9.14636 22.827 9.18036 21.8412 9.16336 21.6882C9.14636 21.5352 9.09537 21.3313 8.9424 21.2463C8.78942 21.1443 8.58546 21.1613 8.41549 21.1783C8.24551 21.1953 7.99056 21.2123 7.85458 21.0763C7.7186 20.9403 7.7526 20.7873 7.85458 20.6854C7.95656 20.5834 8.19452 20.5664 8.41549 20.5664C8.65345 20.5664 8.89141 20.5324 9.01039 20.4304C9.12937 20.3284 9.18036 20.2434 9.18036 20.0395C9.18036 19.8525 9.21435 19.4786 9.21435 19.3426C9.21435 19.1896 9.21435 19.0196 9.28234 18.9516C9.35033 18.9007 9.5033 18.8157 9.60529 18.8157C9.70727 18.8157 9.74126 18.8667 9.77526 18.9177C9.80925 18.9686 9.84325 19.0536 9.79226 19.1216Z" fill="#B7B7B7"/>
<path d="M10.2175 27.2462C10.2175 27.2462 10.3535 27.0253 10.4725 26.9233C10.5914 26.8213 10.6594 26.8213 10.7614 26.8723C10.8634 26.9233 11.1353 27.0593 11.2373 27.0763C11.3393 27.0933 12.2572 27.1273 12.5631 27.1273C12.8861 27.1273 14.4498 27.1103 14.6028 27.1103C14.7557 27.1103 14.8917 27.1783 14.9257 27.2292C14.9597 27.2802 14.9767 27.3652 14.8917 27.4332C14.8067 27.5182 14.5178 27.5012 14.1778 27.5012C13.8379 27.5012 12.3421 27.4842 12.0532 27.4842C11.7812 27.4842 11.1523 27.4842 11.0334 27.4502C10.9144 27.4332 10.6934 27.3992 10.5914 27.3992C10.4895 27.3992 10.3875 27.4332 10.3025 27.4332C10.2175 27.4332 10.1835 27.4162 10.1665 27.3822C10.1665 27.3652 10.2005 27.2802 10.2175 27.2462Z" fill="white"/>
<path d="M15.6228 27.6032C15.6228 27.6032 15.7248 27.7392 15.7418 27.8752C15.7588 27.9942 15.7418 28.1301 15.7248 28.2151C15.7078 28.2831 15.7418 28.4191 15.6738 28.4871C15.6058 28.5381 15.4868 28.5891 15.3509 28.5551C15.2149 28.5211 15.1129 28.4531 15.0619 28.3171C15.0109 28.1811 14.9769 28.0622 14.9939 27.9262C15.0109 27.7902 15.0619 27.6882 15.1809 27.6032C15.2999 27.5182 15.3679 27.5182 15.4358 27.5182C15.5378 27.5012 15.6058 27.5692 15.6228 27.6032Z" fill="#B7B7B7"/>
<path d="M16.0984 27.5016C16.0984 27.5016 17.1182 27.5186 17.4582 27.5186C17.7981 27.5186 18.461 27.5016 18.699 27.5016C18.9539 27.5016 19.7528 27.4676 20.0417 27.4676C20.3307 27.4676 20.3477 27.5016 20.4667 27.4846C20.6026 27.4846 20.7046 27.4166 20.7216 27.3826C20.7386 27.3486 20.7046 27.2976 20.6536 27.2126C20.6026 27.1276 20.4667 26.9237 20.3817 26.8727C20.2967 26.8217 20.2117 26.8047 20.1267 26.8727C20.0247 26.9407 20.0417 26.9576 19.7698 27.0086C19.4978 27.0596 18.665 27.1276 18.427 27.1106C18.189 27.0936 17.1862 27.0936 16.9822 27.0936C16.7783 27.0936 16.3194 27.0766 16.2004 27.1106C16.0984 27.1276 15.9114 27.1616 15.9114 27.2806C15.8944 27.4166 16.0134 27.5016 16.0984 27.5016Z" fill="white"/>
<path d="M16.4727 27.8584C16.4727 27.8584 18.0705 27.8584 18.3084 27.8414C18.5464 27.8414 19.8892 27.8244 20.0931 27.8244C20.3141 27.8074 20.892 27.7734 21.079 27.7055C21.2659 27.6375 21.3169 27.5015 21.3169 27.2805C21.3169 27.0426 21.3509 26.3797 21.3509 26.1417C21.3509 25.9038 21.3509 23.9661 21.3509 23.7621C21.3509 23.5581 21.3679 22.4703 21.3679 22.2154C21.3679 21.9604 21.3679 20.6686 21.3509 20.5327C21.3509 20.3967 21.3509 19.4448 21.3339 19.3598C21.3339 19.2919 21.3169 19.2239 21.249 19.1389C21.198 19.0709 21.096 18.9519 21.13 18.8669C21.164 18.7819 21.3169 18.714 21.4529 18.731C21.5889 18.748 21.7759 18.8329 21.7589 19.1899C21.7419 19.5298 21.7419 19.9208 21.7759 20.0907C21.8269 20.2777 21.8439 20.3967 22.1668 20.4477C22.4897 20.4987 22.7277 20.4647 22.8637 20.5497C22.9997 20.6346 23.0167 20.8046 22.9657 20.9066C22.9147 21.0086 22.6767 21.0766 22.4218 21.0766C22.1668 21.0766 21.9968 21.0936 21.8778 21.2295C21.7589 21.3485 21.7589 21.4165 21.7589 21.6205C21.7419 21.8244 21.7589 22.6403 21.7589 22.8273C21.7759 23.0312 21.7249 23.8641 21.7249 24.0171C21.7249 24.17 21.7079 24.7649 21.7249 25.0539C21.7419 25.3429 21.7419 25.5128 21.9288 25.5978C22.1158 25.6828 22.2518 25.6658 22.4728 25.6828C22.6937 25.6998 22.9147 25.7168 23.0167 25.8358C23.1186 25.9547 23.0846 26.1587 22.9317 26.2607C22.7787 26.3627 22.6937 26.3457 22.4728 26.3287C22.2518 26.3287 22.0988 26.3287 21.9968 26.3967C21.8948 26.4647 21.8439 26.5327 21.7929 26.8726C21.7589 27.2125 21.7079 27.6205 21.6909 27.7734C21.6739 27.9264 21.7079 27.9944 21.6739 28.0624C21.6229 28.1134 21.4019 28.2154 21.249 28.2154C21.096 28.2154 20.671 28.2154 20.4841 28.2324C20.2971 28.2494 19.0053 28.2494 18.7844 28.2494C18.5804 28.2494 17.4926 28.2664 17.3396 28.2834C17.1866 28.3004 16.4558 28.2834 16.3198 28.2664C16.1668 28.2494 16.0988 28.1644 16.0818 28.0964C16.0648 28.0284 16.0818 27.9774 16.1498 27.9434C16.2518 27.8924 16.3028 27.8584 16.4727 27.8584Z" fill="#B7B7B7"/>
<path d="M20.9931 26.6005C20.9931 26.6005 21.0101 24.6798 21.0101 24.4759C21.0101 24.2719 21.0101 22.1473 21.0101 22.0453C21.0101 21.9433 21.0101 20.3966 21.0101 20.2776C21.0101 20.1756 20.9761 19.5807 20.9761 19.4617C20.9761 19.3427 20.9761 19.2917 20.9081 19.1898C20.8571 19.1048 20.7722 19.0028 20.6872 18.9178C20.6022 18.8328 20.6022 18.8498 20.5682 18.8838C20.5342 18.9178 20.4832 18.9688 20.4832 19.0538C20.4832 19.1388 20.4662 19.9036 20.4662 20.0396C20.4662 20.1756 20.5002 21.1104 20.5002 21.3144C20.5002 21.5184 20.4662 22.9971 20.4662 23.2181C20.4662 23.4391 20.4662 25.0368 20.4832 25.2238C20.5002 25.3937 20.5172 25.9546 20.5002 26.0056C20.5002 26.0566 20.4832 26.0566 20.4662 26.1926C20.4492 26.3116 20.4832 26.4306 20.5342 26.5835C20.5852 26.7195 20.7552 26.9405 20.8402 27.0255C20.9251 27.1104 20.9761 27.0425 20.9761 26.9235C20.9931 26.7875 20.9931 26.6005 20.9931 26.6005Z" fill="white"/>
<path d="M18.6647 21.4505C18.6647 21.4505 18.7837 21.6374 18.8517 21.6714C18.9197 21.7054 19.0387 21.7224 19.0727 21.6034C19.1067 21.4845 19.1237 21.2635 19.0897 21.0935C19.0387 20.9236 19.0387 20.8556 18.9197 20.8386C18.8007 20.8216 18.7327 20.8726 18.6987 20.8896C18.6647 20.9066 18.6307 20.9236 18.5628 20.9236C18.4948 20.9236 18.1378 20.9066 17.9679 20.9575C17.7979 21.0085 17.4919 21.1615 17.4069 21.6374C17.322 22.1134 17.5259 22.3683 17.8489 22.6233C18.1718 22.8612 18.3758 22.9632 18.5458 23.0992C18.7157 23.2352 18.9027 23.4901 18.9027 23.6771C18.9027 23.8641 18.7837 24.068 18.6647 24.153C18.5458 24.221 18.2058 24.204 18.0698 24.119C17.9169 24.034 17.7639 23.8641 17.7299 23.7451C17.6789 23.6261 17.6449 23.5241 17.5429 23.5071C17.4409 23.5071 17.356 23.6431 17.356 23.7791C17.356 23.9151 17.39 23.983 17.39 24.102C17.39 24.221 17.373 24.34 17.4239 24.408C17.4749 24.476 17.4919 24.476 17.5599 24.442C17.6279 24.408 17.6619 24.374 17.7979 24.374C17.9339 24.374 18.0188 24.459 18.2398 24.527C18.4608 24.5779 18.8687 24.493 19.0727 24.323C19.2766 24.136 19.4636 23.7111 19.3956 23.3541C19.3276 22.9972 19.0897 22.7592 18.7667 22.5723C18.4438 22.3853 18.0358 22.0964 17.9169 21.9264C17.7979 21.7564 17.7809 21.5864 17.8489 21.4675C17.9169 21.3315 18.0188 21.2975 18.2228 21.3145C18.4098 21.3315 18.5798 21.3825 18.5798 21.3825C18.5798 21.3825 18.6477 21.4165 18.6647 21.4505Z" fill="black"/>
<path d="M20.552 4.67405C20.552 4.67405 21.3679 4.64005 21.6058 4.64005C21.8438 4.64005 22.2517 4.70804 22.4047 4.75903C22.5577 4.81002 22.6596 4.89501 22.7106 4.89501C22.7616 4.89501 22.9656 4.75903 23.0676 4.74204C23.1696 4.72504 23.6965 4.67405 24.4274 4.70804C25.1582 4.74204 25.5322 4.70804 25.8211 4.60606C26.1101 4.50408 26.28 4.3341 26.348 4.31711C26.433 4.30011 26.552 4.30011 26.637 4.43609C26.722 4.57206 26.807 4.72504 26.8919 4.75903C26.9769 4.79303 27.4019 4.70804 27.5888 4.72504C27.7758 4.74204 28.0817 4.79303 28.0987 5.11597C28.1157 5.43892 28.0308 6.01682 28.0647 6.1868C28.0987 6.35677 28.2007 6.44175 28.5237 6.42475C28.8466 6.42475 29.1866 6.45875 29.2885 6.7647C29.3905 7.05365 29.3735 7.30861 29.2206 7.51257C29.0676 7.71654 28.8466 7.73354 28.5747 7.75053C28.3027 7.76753 28.2347 7.75053 28.1837 7.85252C28.1327 7.9715 28.0987 8.32844 28.1157 8.63439C28.1327 8.94034 28.1497 9.29728 28.1327 9.39926C28.1157 9.50124 28.0817 10.1131 28.0817 10.3001C28.0987 10.4701 28.1157 10.997 28.0987 11.099C28.0987 11.201 28.1497 11.3879 28.3027 11.4559C28.4557 11.5239 28.8296 11.4899 28.9486 11.5069C29.0676 11.5239 29.1866 11.6429 29.2885 11.7959C29.3905 11.9488 29.4585 12.1868 29.3395 12.4587C29.2206 12.7307 28.9826 12.8327 28.7446 12.8667C28.5067 12.9007 28.2857 12.8667 28.1667 12.9517C28.0477 13.0367 28.0138 13.1386 27.9968 13.6316C27.9798 14.1245 27.9458 14.4814 27.8608 14.6004C27.7758 14.7194 27.4528 14.7704 27.1809 14.7704C26.9089 14.7704 25.1242 14.7364 24.7673 14.7364C24.4104 14.7364 23.6115 14.7194 23.5435 14.7194C23.4755 14.7194 23.3225 14.6854 23.1866 14.8214C23.0336 14.9573 22.9146 15.1443 22.7106 15.1443C22.5067 15.1613 22.3197 15.0593 22.0817 14.9233C21.8438 14.7874 21.6398 14.7364 21.5378 14.7534C21.4358 14.7704 21.2319 14.7704 21.0619 14.7534C20.8919 14.7364 19.0223 14.7024 18.6823 14.7194C18.3424 14.7364 17.7475 14.7364 17.4925 14.6344C17.2206 14.5324 17.2545 14.4474 17.2545 14.1415C17.2545 13.8355 17.3055 13.5126 17.3055 13.3256C17.3055 13.1386 17.1866 12.8837 17.0336 12.8497C16.8806 12.8157 16.5577 12.9007 16.2687 12.7137C15.9798 12.5267 15.9118 12.1528 15.9798 11.9828C16.0477 11.8129 16.1497 11.5579 16.5237 11.5409C16.8976 11.5239 17.1186 11.4729 17.2205 11.4049C17.3225 11.3369 17.3225 10.963 17.3055 10.742C17.2885 10.5211 17.2206 9.58623 17.2375 9.28028C17.2545 8.99133 17.2885 9.00832 17.2885 8.85535C17.2885 8.70238 17.2545 8.31144 17.2715 8.12447C17.2885 7.9375 17.3225 7.88651 17.2205 7.80153C17.1186 7.71654 16.8636 7.66555 16.5577 7.64855C16.2687 7.63155 15.9458 7.51257 15.9288 7.18963C15.9118 6.86668 16.0817 6.45875 16.4897 6.44175C16.8976 6.42476 17.0506 6.42476 17.1696 6.30578C17.2885 6.20379 17.2545 5.94884 17.2545 5.76187C17.2545 5.5749 17.1526 5.04798 17.3055 4.86102C17.4585 4.67405 17.6795 4.60606 18.0704 4.65705C18.4613 4.70804 18.6313 4.69104 18.6993 4.55507C18.7673 4.41909 18.7843 4.38509 18.8863 4.3681C18.9883 4.3511 19.1582 4.3341 19.3792 4.43609C19.6172 4.53807 19.9571 4.67405 20.552 4.67405Z" fill="black"/>
<path d="M19.8216 4.94617C19.8216 4.94617 20.0256 5.06515 20.4505 5.06515C20.8755 5.04816 21.3514 4.99717 21.5723 4.98017C21.7933 4.96317 22.1333 5.01416 22.2182 5.09915C22.3032 5.18414 22.3712 5.50708 22.4052 5.93201C22.4392 6.35694 22.3712 6.73088 22.3712 7.00283C22.3712 7.27479 22.3712 8.87252 22.3712 9.04249C22.3712 9.19547 22.3712 10.7082 22.3882 10.8612C22.3882 11.0142 22.3372 11.5751 22.3202 11.83C22.3032 12.068 22.3202 12.7649 22.3202 12.8499C22.3202 12.9348 22.2862 13.0028 22.0823 12.9688C21.8783 12.9348 21.7593 12.9178 21.3854 12.9009C21.0114 12.8839 20.8075 12.9178 20.6885 12.9009C20.5865 12.8839 20.3995 12.9009 20.3146 12.9178C20.2296 12.9348 20.1446 12.9518 20.0596 12.9348C19.9576 12.9178 19.7197 12.9008 19.5497 12.8839C19.3797 12.8669 19.2097 12.8159 19.1248 12.7139C19.0398 12.6119 19.0738 12.3229 19.0908 12.102C19.1078 11.881 19.1248 10.7592 19.1078 10.4193C19.0908 10.0963 19.0568 8.73654 19.0568 8.4136C19.0738 8.09065 19.0908 6.6289 19.0908 6.27195C19.0908 5.93201 19.0908 5.26912 19.0908 5.13314C19.0908 4.99717 19.1417 4.89518 19.2097 4.86119C19.2607 4.82719 19.3457 4.82719 19.5157 4.86119C19.6687 4.89518 19.8216 4.94617 19.8216 4.94617Z" fill="white"/>
<path d="M18.716 5.72789C18.716 5.72789 18.699 6.57774 18.716 6.88369C18.733 7.18964 18.716 7.64857 18.716 7.88653C18.716 8.12449 18.699 9.34828 18.716 9.63723C18.716 9.92619 18.716 11.7619 18.699 11.9998C18.699 12.2208 18.716 12.6797 18.699 12.7647C18.682 12.8497 18.5971 13.1047 18.4951 13.1726C18.3931 13.2576 18.2231 13.2406 18.2571 13.0537C18.2911 12.8667 18.2911 12.7817 18.2741 12.5437C18.2571 12.2888 18.2741 11.8469 18.2741 11.6429C18.2571 11.4219 18.2401 9.70522 18.2401 9.51825C18.2401 9.33129 18.2741 7.00267 18.2571 6.66273C18.2401 6.32279 18.2401 5.98284 18.2741 5.81287C18.2911 5.6429 18.3591 5.45593 18.4441 5.33695C18.5461 5.21797 18.5801 5.23497 18.614 5.30296C18.665 5.33695 18.699 5.52392 18.716 5.72789Z" fill="white"/>
<path d="M18.1389 5.25204C18.1389 5.25204 17.9689 5.59199 17.9689 6.05091C17.9519 6.50983 17.9689 8.00558 17.9689 8.20955C17.9689 8.43051 17.9859 10.0792 17.9689 10.4362C17.9519 10.7761 17.9689 12.7818 17.9859 13.1727C18.0029 13.5637 18.0199 13.6656 18.1049 13.7506C18.1899 13.8356 18.2749 13.8866 18.4958 13.9036C18.7168 13.9206 20.1106 13.9376 20.5015 13.9376C20.8924 13.9376 21.5213 13.9716 21.6743 14.0056C21.8273 14.0396 21.8953 14.1416 21.8783 14.2095C21.8613 14.2775 21.7593 14.3285 21.5213 14.3455C21.2834 14.3625 19.3797 14.3115 19.1417 14.3285C18.9038 14.3455 18.8358 14.3625 18.7508 14.3455C18.6658 14.3285 18.5468 14.3285 18.4618 14.3285C18.3769 14.3285 18.0369 14.3285 17.9179 14.3115C17.799 14.2945 17.663 14.1586 17.646 13.8866C17.646 13.6146 17.646 13.0707 17.612 12.9348C17.578 12.7988 17.425 12.5268 17.1531 12.5098C16.8811 12.4928 16.6262 12.5438 16.4732 12.4248C16.3202 12.3059 16.2692 12.1019 16.3882 11.9999C16.5072 11.8979 16.7281 11.8639 16.9491 11.8639C17.1701 11.8639 17.459 11.779 17.51 11.524C17.561 11.286 17.612 10.4872 17.595 10.0622C17.578 9.63731 17.578 8.12456 17.578 7.95459C17.578 7.78462 17.561 7.52966 17.374 7.42768C17.1871 7.3257 16.9491 7.3257 16.7451 7.3257C16.5412 7.3257 16.3882 7.3257 16.3032 7.15573C16.2182 6.98575 16.3032 6.78179 16.6941 6.7308C17.0851 6.6968 17.357 6.7138 17.476 6.52683C17.612 6.33986 17.595 6.20388 17.595 5.89793C17.595 5.59199 17.629 5.20105 17.714 5.08207C17.799 4.96309 17.9179 4.98009 18.0029 4.98009C18.0879 4.98009 18.2069 5.08207 18.2069 5.08207C18.2069 5.08207 18.1729 5.18405 18.1389 5.25204Z" fill="#B7B7B7"/>
<path d="M19.0911 13.6486C19.0911 13.6486 20.8418 13.6146 21.0118 13.6146C21.1817 13.6146 21.3177 13.6486 21.5047 13.6656C21.6917 13.6826 21.8616 13.7506 22.0146 13.6996C22.1676 13.6486 22.1846 13.5296 22.1336 13.4277C22.0826 13.3257 21.8276 13.2407 21.4197 13.2577C21.0118 13.2747 20.3659 13.2747 20.1449 13.2747C19.941 13.2747 19.533 13.1897 19.2951 13.1557C19.0571 13.1217 18.9721 13.0877 18.8871 13.1557C18.8021 13.2237 18.6492 13.3257 18.6492 13.4107C18.6492 13.4957 18.6662 13.6146 18.8191 13.6146C18.9891 13.6486 19.0911 13.6486 19.0911 13.6486Z" fill="white"/>
<path d="M22.3882 13.8356C22.3882 13.8356 22.2352 14.0566 22.2522 14.2435C22.2692 14.4305 22.4221 14.6515 22.5751 14.6685C22.7281 14.6855 22.9661 14.6685 23.017 14.5155C23.068 14.3795 23.102 14.1416 22.9661 13.9716C22.8301 13.8016 22.5581 13.5977 22.3882 13.8356Z" fill="#B7B7B7"/>
<path d="M23.9179 14.2945C23.9179 14.2945 26.2295 14.3115 26.4165 14.3115C26.6035 14.3115 27.2664 14.3115 27.3513 14.2945C27.4533 14.2775 27.4533 14.2606 27.5213 14.1926C27.5893 14.1416 27.6063 14.1246 27.6403 13.9716C27.6573 13.8186 27.7593 12.9178 27.7593 12.7478C27.7593 12.5778 27.8443 12.4589 28.0482 12.4079C28.2352 12.3739 28.6091 12.4588 28.8131 12.3739C29.0171 12.2889 29.102 12.1189 29.0341 11.9829C28.9661 11.847 28.7451 11.762 28.3882 11.762C28.0312 11.779 27.9632 11.762 27.8613 11.592C27.7593 11.422 27.7253 10.6741 27.7423 10.4362C27.7593 10.1982 27.7933 8.77047 27.7933 8.49851C27.7933 8.22656 27.7933 7.81862 27.7763 7.73364C27.7593 7.64865 27.8103 7.49568 27.9292 7.41069C28.0482 7.32571 28.4052 7.3427 28.5751 7.3427C28.7451 7.3427 28.9831 7.30871 28.9831 7.03675C28.9831 6.7648 28.7281 6.71381 28.4901 6.7308C28.2522 6.7478 27.9462 6.69681 27.8443 6.50984C27.7423 6.32287 27.7593 5.86395 27.7763 5.64299C27.7933 5.42202 27.7763 5.13307 27.5893 5.08208C27.4023 5.03109 27.2664 5.01409 27.2154 5.15007C27.1644 5.28605 27.1814 5.30304 27.2494 5.47301C27.3173 5.64299 27.3343 5.69398 27.3343 5.88095C27.3343 6.06792 27.3343 7.9546 27.3343 8.14157C27.3343 8.32854 27.3173 10.9971 27.3173 11.1841C27.3173 11.371 27.3003 12.5268 27.3003 12.6628C27.3003 12.7988 27.2664 12.9518 27.2664 13.0707C27.2664 13.1897 27.2833 13.5637 27.2494 13.6826C27.2154 13.8186 27.0454 13.9546 26.9434 13.9716C26.8414 13.9886 25.2437 13.9886 25.0567 13.9886C24.8698 13.9886 24.2749 13.9546 24.0709 13.9546C23.8669 13.9546 23.646 13.9376 23.476 14.0226C23.306 14.1076 23.34 14.2096 23.391 14.2606C23.459 14.3285 23.7479 14.2945 23.9179 14.2945Z" fill="#B7B7B7"/>
<path d="M23.221 13.7165C23.221 13.7165 25.7366 13.6995 26.0595 13.6995C26.3995 13.6995 26.6544 13.6995 26.7224 13.6825C26.7904 13.6655 26.8244 13.5635 26.7904 13.4955C26.7394 13.4276 26.5524 13.2066 26.4505 13.1556C26.3485 13.1046 26.2805 13.1216 26.1445 13.1556C26.0085 13.1896 25.4306 13.3256 24.9377 13.3256C24.4448 13.3256 24.0369 13.2746 23.7649 13.2746C23.493 13.2746 23.238 13.2916 23.119 13.3596C23 13.4106 22.949 13.4275 23 13.5295C23.068 13.6485 23.153 13.7165 23.221 13.7165Z" fill="white"/>
<path d="M27.0283 12.9176C27.0283 12.9176 27.0453 12.5947 27.0283 12.2717C27.0113 11.9488 27.0283 11.5579 27.0453 11.4049C27.0623 11.2519 27.0623 10.4191 27.0453 10.1471C27.0283 9.87514 27.0793 8.00546 27.0793 7.7335C27.0793 7.44455 27.0623 6.10177 27.0623 5.9148C27.0623 5.72783 27.0623 5.60885 26.9263 5.3539C26.7904 5.09894 26.7054 5.08194 26.6034 5.11594C26.5014 5.14993 26.5184 5.47288 26.5014 5.69384C26.5014 5.89781 26.5354 6.45871 26.5354 6.84965C26.5354 7.24058 26.5014 7.49554 26.5014 8.02245C26.5014 8.54936 26.5014 10.64 26.5014 10.895C26.5014 11.1499 26.5184 12.2547 26.5014 12.4247C26.4844 12.5947 26.5184 12.6967 26.5864 12.8496C26.6714 13.0026 26.8074 13.1386 26.8753 13.1556C26.9433 13.1726 27.0283 13.1386 27.0283 12.9176Z" fill="white"/>
<path d="M23.3399 12.9178C23.3399 12.9178 24.1217 12.9178 24.3937 12.9348C24.6826 12.9518 25.0736 12.9688 25.2096 12.9518C25.3455 12.9348 25.5325 12.9178 25.6345 12.9178C25.7365 12.9178 25.9064 12.9008 26.0084 12.8328C26.1104 12.7818 26.1444 12.7138 26.1614 12.5778C26.1614 12.4249 26.2124 10.3002 26.1954 9.87528C26.1784 9.45035 26.1784 9.04242 26.1954 8.85545C26.2124 8.66848 26.2124 7.29171 26.2124 7.05375C26.2124 6.83279 26.1784 5.93194 26.1954 5.575C26.1954 5.21806 26.2294 4.9461 26.2124 4.91211C26.1954 4.87812 26.1444 4.77613 26.0594 4.81013C25.9744 4.86112 25.6175 5.03109 24.8526 5.04809C24.0877 5.06508 23.4758 5.04809 23.3399 5.04809C23.2039 5.04809 22.813 5.09908 22.813 5.45602C22.813 5.81296 22.762 7.47868 22.762 7.63166C22.762 7.78463 22.745 9.80729 22.762 10.1132C22.779 10.4192 22.796 11.558 22.762 11.9319C22.728 12.3059 22.694 12.7818 22.694 12.8838C22.694 12.9858 22.711 12.9858 22.762 13.0368C22.813 13.0877 22.8979 13.0707 22.9829 13.0368C23.0679 12.9858 23.2209 12.9178 23.3399 12.9178Z" fill="white"/>
<path d="M23.8329 7.80169C23.8329 7.80169 23.8499 9.14447 23.8669 9.33144C23.8669 9.50141 23.8839 9.97733 23.8499 10.1473C23.8159 10.3173 23.8329 10.4023 23.7479 10.4702C23.663 10.5382 23.561 10.6572 23.544 10.7252C23.527 10.7932 23.561 10.8612 23.612 10.8782C23.68 10.8952 24.0709 10.8782 24.2239 10.8952C24.3938 10.8952 24.4278 10.9122 24.4958 10.8952C24.5638 10.8782 24.6318 10.7762 24.5978 10.7082C24.5638 10.6572 24.4278 10.4702 24.4108 10.4193C24.3938 10.3853 24.3768 9.65438 24.3768 9.43342C24.3768 9.21246 24.3768 8.03965 24.3768 7.93767C24.3768 7.83568 24.3768 7.7507 24.4278 7.69971C24.4618 7.64871 24.6488 7.44475 24.6488 7.35976C24.6488 7.27478 24.6488 7.24078 24.5638 7.18979C24.4788 7.1558 24.4448 7.18979 24.3768 7.18979C24.3088 7.18979 23.9689 7.18979 23.8669 7.18979C23.7819 7.18979 23.663 7.24078 23.646 7.32577C23.629 7.41075 23.663 7.46175 23.7309 7.56373C23.8159 7.66571 23.8329 7.69971 23.8329 7.80169Z" fill="black"/>
<path d="M22.0142 10.6062C21.9462 10.5552 21.8442 10.4192 21.7422 10.2493C21.6402 10.0793 21.5043 9.82435 21.3853 9.67137C21.2833 9.5014 21.2493 9.46741 21.2493 9.34843C21.2493 9.22945 21.3003 9.17845 21.3513 9.12746C21.4023 9.07647 21.8272 8.73653 21.8952 8.53256C21.9632 8.3116 21.9802 7.81868 21.8272 7.61471C21.6742 7.41075 21.3003 7.13879 20.9264 7.13879C20.5524 7.13879 20.2805 7.15579 20.1275 7.15579C19.9745 7.15579 19.8555 7.13879 19.8045 7.15579C19.7535 7.17279 19.6686 7.25777 19.6856 7.32576C19.7026 7.39375 19.7366 7.41075 19.8045 7.46174C19.8725 7.51273 20.0085 7.63171 20.0085 8.02265C20.0255 8.41358 19.9745 9.28044 19.9745 9.5184C19.9745 9.73936 19.9745 10.3513 19.9745 10.3513C19.9745 10.3513 19.8215 10.5212 19.7705 10.5892C19.7196 10.6572 19.7196 10.7422 19.7536 10.7932C19.7875 10.8442 19.9575 10.8272 20.0935 10.8442C20.2125 10.8442 20.5354 10.8612 20.6034 10.8442C20.6714 10.8272 20.7394 10.7592 20.7394 10.7252C20.7394 10.6912 20.7054 10.6232 20.6034 10.5042C20.5014 10.3853 20.4674 10.3343 20.4674 10.2153C20.4674 10.0963 20.4504 9.79035 20.4844 9.62038C20.5184 9.45041 20.5184 9.38242 20.6034 9.38242C20.6714 9.38242 20.7224 9.41641 20.7564 9.4844C20.7564 9.4844 20.8924 9.80735 21.0283 9.97732C21.1643 10.1473 21.3513 10.4872 21.4363 10.6062C21.5383 10.7252 21.6402 10.8272 21.7762 10.8442C21.9122 10.8612 22.0142 10.7592 22.0142 10.7252C22.0652 10.6742 22.0652 10.6572 22.0142 10.6062ZM20.8584 8.95749C20.7224 8.95749 20.6034 8.8895 20.5354 8.77052C20.4844 8.65154 20.5354 8.34559 20.5354 8.19262C20.5354 8.03964 20.5524 7.7167 20.5694 7.61471C20.5864 7.51273 20.7224 7.44474 20.9094 7.44474C20.9094 7.44474 21.0793 7.44474 21.2323 7.59772C21.3853 7.76769 21.4023 7.92066 21.4363 7.98865C21.4703 8.05664 21.4703 8.15862 21.4703 8.24361C21.4703 8.3286 21.4363 8.56656 21.3003 8.70253C21.1473 8.83851 20.9943 8.97449 20.8584 8.95749Z" fill="black"/>
</svg>
