<svg width="24" height="24" viewBox="0 0 24 24" fill="none" xmlns="http://www.w3.org/2000/svg">
<path d="M21 2.99997C18 2.99997 14 3.99997 14 11L14 19C14 20.25 14.756 21.017 16 21L20 21C21.25 21 22 20.25 22 19.028L22 13C22 11.75 21.25 11 20 11C19 11 19 11 19 9.99997L19 8.99997C19 7.99997 20 6.99997 21 6.99997C22 6.99997 22 6.99197 22 5.96897L22 3.99997C22 2.99997 22 2.99997 21 2.99997Z" fill="white" stroke="white" stroke-linecap="round" stroke-linejoin="round"/>
<path d="M9 2.99997C6 2.99997 2 3.99997 2 11L2 19C2 20.25 2.757 21.017 4 21L8 21C9.25 21 10 20.25 10 19.028L10 13C10 11.75 9.25 11 8 11L7.25 11C7.25 8.74997 7 6.99997 10 6.99997L10 3.99997C10 2.99997 10 2.99997 9 2.99997Z" fill="white" stroke="white" stroke-linecap="round" stroke-linejoin="round"/>
</svg>
