<svg width="28" height="28" viewBox="0 0 28 28" fill="none" xmlns="http://www.w3.org/2000/svg">
<path d="M25.7594 0.0025111H2.39744C2.09633 -0.0115926 1.79537 0.0338162 1.51183 0.136164C1.22828 0.238512 0.967711 0.39577 0.745011 0.598926C0.522328 0.8021 0.34189 1.0472 0.214055 1.32018C0.0862208 1.59317 0.0134747 1.88868 0 2.18981V25.6027C0.0176396 26.2328 0.275898 26.8325 0.721736 27.2782C1.16757 27.724 1.76718 27.9823 2.39744 28H25.7594C26.3721 27.9727 26.9497 27.7064 27.3685 27.2582C27.7873 26.8101 28.0137 26.2159 27.9994 25.6027V2.18981C28.0044 1.89671 27.9495 1.6057 27.838 1.33458C27.7265 1.06347 27.5608 0.817989 27.351 0.61317C27.1413 0.408369 26.892 0.248574 26.6183 0.143566C26.3446 0.0385583 26.0523 -0.00944031 25.7594 0.0025111ZM8.7498 23.3454H4.67239V10.8691H8.7498V23.3454ZM6.80734 8.97919C6.52282 8.98911 6.23931 8.94008 5.97464 8.8352C5.70996 8.73031 5.46983 8.57183 5.26936 8.3697C5.06886 8.16758 4.91233 7.92619 4.80961 7.66068C4.70687 7.39518 4.66016 7.11131 4.67239 6.82689C4.65981 6.53939 4.70746 6.25245 4.8123 5.98446C4.91714 5.71646 5.07684 5.47333 5.28115 5.27068C5.48548 5.06802 5.72989 4.9103 5.99874 4.80766C6.2676 4.705 6.55495 4.65967 6.84234 4.67458C7.12687 4.66468 7.41038 4.71369 7.67504 4.81858C7.93973 4.92346 8.17985 5.08195 8.38033 5.28407C8.58082 5.48619 8.73736 5.72758 8.84008 5.99309C8.94282 6.25859 8.98953 6.54247 8.97729 6.82689C8.98988 7.11439 8.94222 7.40132 8.83738 7.66931C8.73254 7.93732 8.57284 8.18044 8.36854 8.38309C8.16421 8.58576 7.91979 8.74347 7.65095 8.84611C7.38208 8.94878 7.09474 8.9941 6.80734 8.97919ZM23.3445 23.3454H19.2496V16.521C19.2496 14.8937 18.6721 13.7738 17.2196 13.7738C16.7685 13.7777 16.3294 13.921 15.963 14.1841C15.5963 14.4473 15.3202 14.8174 15.1722 15.2437C15.0584 15.5632 15.0108 15.9025 15.0322 16.2411V23.3454H11.0072V10.8691H15.0322V12.6189C15.39 11.9615 15.9225 11.4159 16.5711 11.0421C17.2196 10.6685 17.9588 10.4814 18.7071 10.5016C21.3495 10.5016 23.3445 12.2514 23.3445 15.9786V23.3454Z" fill="white"/>
</svg>
