<svg width="40" height="74" viewBox="0 0 40 74" fill="none" xmlns="http://www.w3.org/2000/svg">
<path d="M10.2348 72C6.20446 71.3636 0.0529143 64.9999 2.59826 56.727C5.90326 45.985 19.6137 51.3812 24.0883 53.4763C24.8279 53.8226 24.981 54.7465 24.3671 55.2849C21.5084 57.7917 13.6107 63.1711 4.50736 56.0907" stroke="white" stroke-width="3.8182" stroke-linecap="round"/>
<path d="M15.0916 48.3477C15.5037 37.1163 30.1437 38.7802 35.008 39.6457C35.812 39.7888 36.1991 40.6416 35.7454 41.3206C33.6329 44.4818 27.3967 51.722 16.771 47.239" stroke="white" stroke-width="3.8182" stroke-linecap="round"/>
<path d="M25.3849 38.4181C17.7346 30.1849 28.6895 21.091 33.3147 18.1818C33.9844 17.7145 34.8612 18.0438 35.0204 18.8447C35.762 22.5738 37.5986 33.1819 25.7884 36.4466" stroke="white" stroke-width="3.8182" stroke-linecap="round"/>
<path d="M26.2518 24.1497C15.5098 20.8447 20.906 7.13425 23.0011 2.6597C23.3473 1.92013 24.2713 1.76694 24.8097 2.38093C27.3164 5.23959 32.6959 13.1373 25.6155 22.2406" stroke="white" stroke-width="3.8182" stroke-linecap="round"/>
</svg>
