<svg width="32" height="36" viewBox="0 0 32 36" fill="none" xmlns="http://www.w3.org/2000/svg">
<path d="M16.0007 0C17.8921 0 30.3466 7.3305 31.289 9C32.237 10.6695 32.237 25.3305 31.289 27C30.3411 28.6695 17.891 36 16.0007 36C14.1092 36 1.65475 28.6695 0.706813 27C-0.235605 25.3305 -0.235605 10.6695 0.706813 9C1.65475 7.3305 14.1103 0 16.0007 0ZM19.3808 10.2015C19.1678 10.2015 18.9957 10.3714 18.9957 10.5885V16.4014H13.0068V10.3601H14.0353C14.2428 10.3601 14.4094 10.1902 14.4094 9.97312C14.4094 9.8325 14.3344 9.70988 14.2317 9.64462L11.9154 7.38338C11.8459 7.28325 11.7079 7.21912 11.5821 7.21912C11.4619 7.21912 11.346 7.28325 11.2776 7.37775L8.80565 9.64575C8.70192 9.71663 8.62798 9.83362 8.62798 9.97425C8.62798 10.1858 8.79461 10.3612 9.0076 10.3612H10.0427L10.0537 25.4137C10.0537 25.6309 10.2149 25.8008 10.4278 25.8008H12.6239C12.8313 25.8008 13.0035 25.6309 13.0035 25.4137V19.4074H18.9979V25.6354H17.9694C17.7564 25.6354 17.5898 25.8109 17.5898 26.0224C17.5898 26.163 17.6648 26.2856 17.7674 26.3509L20.0893 28.6189C20.1522 28.7122 20.2967 28.7831 20.4226 28.7831C20.5484 28.7831 20.6521 28.7122 20.7271 28.6189L23.199 26.3509C23.3028 26.2868 23.3767 26.163 23.3767 26.0224C23.3767 25.8109 23.2046 25.6354 22.9971 25.6354H21.962L21.9509 10.5885C21.9509 10.3657 21.7843 10.1959 21.5768 10.1959H19.3808V10.2015Z" fill="white"/>
</svg>
