<?xml version="1.0" encoding="UTF-8"?>
<svg version="1.1" xmlns="http://www.w3.org/2000/svg" width="500" height="500">
<path d="M0 0 C165 0 330 0 500 0 C500 165 500 330 500 500 C335 500 170 500 0 500 C0 335 0 170 0 0 Z " fill="#FEFEFE" transform="translate(0,0)"/>
<path d="M0 0 C18.73000925 16.29790357 29.34742857 36.70382706 35.125 60.625 C36.115 60.295 37.105 59.965 38.125 59.625 C44.71827882 59.07112197 51.3987378 58.9481369 57.125 62.625 C64.87826547 69.98683847 64.87826547 69.98683847 65.328125 74.796875 C65.44205273 81.06290025 65.10167451 85.49798839 60.578125 90.25 C54.14824718 96.16776366 48.48034052 96.84711023 39.9296875 96.890625 C37.14905684 96.62727836 35.49457073 96.05354504 33.125 94.625 C33.063125 95.676875 33.00125 96.72875 32.9375 97.8125 C31.31825196 110.26320454 24.14588544 124.89511086 15.125 133.625 C14.795 134.470625 14.465 135.31625 14.125 136.1875 C12.93152395 139.09659787 11.62751862 139.80498646 9.125 141.625 C8.691875 142.40875 8.25875 143.1925 7.8125 144 C5.84916113 147.05408269 3.79650985 148.38874711 0.81640625 150.3671875 C-1.10344842 151.67377363 -1.10344842 151.67377363 -2.875 154.25 C-5.46437566 157.32488359 -8.20004949 158.07765242 -11.875 159.625 C-13.0196875 160.800625 -13.0196875 160.800625 -14.1875 162 C-20.36908812 168.03783026 -28.69886069 170.43202 -36.875 172.625 C-37.91527344 172.94855469 -38.95554687 173.27210938 -40.02734375 173.60546875 C-68.57900985 181.17093561 -95.21071463 178.33572213 -120.875 163.625 C-122.34453125 162.81095703 -122.34453125 162.81095703 -123.84375 161.98046875 C-135.13668752 155.31179444 -145.2247815 145.9567243 -151.875 134.625 C-152.2251416 134.04186035 -152.5752832 133.4587207 -152.93603516 132.85791016 C-158.40828172 123.63180037 -162.25291333 114.69488398 -164.40844727 104.13720703 C-165.00286469 101.68348722 -165.5352771 99.76884199 -166.875 97.625 C-169.14463425 96.41468931 -171.25315324 95.80606034 -173.74951172 95.20410156 C-176.5196325 94.44936615 -177.75328045 93.22631118 -179.4375 90.9375 C-179.91316406 90.31488281 -180.38882813 89.69226563 -180.87890625 89.05078125 C-181.37197266 88.34501953 -181.37197266 88.34501953 -181.875 87.625 C-182.205 90.265 -182.535 92.905 -182.875 95.625 C-187.165 95.625 -191.455 95.625 -195.875 95.625 C-195.875 77.145 -195.875 58.665 -195.875 39.625 C-191.585 39.625 -187.295 39.625 -182.875 39.625 C-182.545 49.195 -182.215 58.765 -181.875 68.625 C-179.895 66.315 -177.915 64.005 -175.875 61.625 C-174.81667969 61.34140625 -173.75835937 61.0578125 -172.66796875 60.765625 C-169.7830313 59.94875736 -169.7830313 59.94875736 -168.98291016 57.80273438 C-168.25847167 55.34057693 -167.69696698 52.89037572 -167.1875 50.375 C-165.94333679 44.71814722 -164.76602319 39.7238651 -161.875 34.625 C-160.55186964 38.59439108 -161.82781954 41.10916415 -163.1875 44.875 C-163.64342982 46.17134746 -164.09786479 47.46822166 -164.55078125 48.765625 C-164.77330566 49.40048828 -164.99583008 50.03535156 -165.22509766 50.68945312 C-166.21582353 53.64004467 -167.04726451 56.6249446 -167.875 59.625 C-166.39 59.13 -166.39 59.13 -164.875 58.625 C-163.67354642 55.65339912 -163.67354642 55.65339912 -162.6875 52 C-160.90104483 46.17122164 -158.68918935 40.81417733 -155.8125 35.4375 C-155.32003784 34.50333252 -155.32003784 34.50333252 -154.81762695 33.55029297 C-152.89574574 30.05011779 -150.84698454 27.29250505 -147.875 24.625 C-149.26515799 28.27912957 -150.91958885 31.67282559 -152.75 35.125 C-155.46751115 40.49374153 -157.36475648 45.83914769 -159.015625 51.6171875 C-159.88293176 54.65276117 -160.85806111 57.63662694 -161.875 60.625 C-161.070625 60.769375 -160.26625 60.91375 -159.4375 61.0625 C-156.875 61.625 -156.875 61.625 -155.875 62.625 C-155.545 61.965 -155.215 61.305 -154.875 60.625 C-146.295 60.625 -137.715 60.625 -128.875 60.625 C-128.545 61.285 -128.215 61.945 -127.875 62.625 C-127.215 62.13 -126.555 61.635 -125.875 61.125 C-122.136566 59.255783 -118.94439263 59.01858071 -114.875 59.625 C-111.54569777 61.00697451 -108.87114997 62.62756668 -105.875 64.625 C-105.09125 63.985625 -104.3075 63.34625 -103.5 62.6875 C-99.54175915 59.57745362 -97.12287595 59.28836593 -92.19921875 59.3359375 C-88.66020095 59.77608425 -86.54474395 61.34595029 -83.875 63.625 C-82.885 65.11 -82.885 65.11 -81.875 66.625 C-81.545 57.715 -81.215 48.805 -80.875 39.625 C-76.33297459 39.54399955 -71.79239696 39.48449031 -67.25 39.4375 C-65.96480469 39.41236328 -64.67960938 39.38722656 -63.35546875 39.36132812 C-61.48955078 39.34682617 -61.48955078 39.34682617 -59.5859375 39.33203125 C-57.87349854 39.30846558 -57.87349854 39.30846558 -56.12646484 39.28442383 C-50.24880995 39.90008148 -45.70789692 42.75689408 -42.00390625 47.25390625 C-39.29668558 52.9400064 -39.91799599 60.75398796 -41.875 66.625 C-39.33328796 65.45190214 -37.14616256 64.1341503 -34.8125 62.5625 C-29.35914158 58.96560402 -24.22143751 59.14749786 -17.875 59.625 C-12.17873613 60.8408412 -8.7291516 63.18688603 -4.875 67.625 C-4.545 67.955 -4.215 68.285 -3.875 68.625 C-3.545 58.065 -3.215 47.505 -2.875 36.625 C1.415 36.625 5.705 36.625 10.125 36.625 C10.455 38.605 10.785 40.585 11.125 42.625 C11.723125 41.965 12.32125 41.305 12.9375 40.625 C15.125 38.625 15.125 38.625 18.125 38.625 C2.402656 12.78139704 -19.46820686 -3.04301346 -48.68359375 -10.375 C-50.08019664 -10.71055753 -51.4772828 -11.04411464 -52.875 -11.375 C-53.87660156 -11.6225 -54.87820313 -11.87 -55.91015625 -12.125 C-76.14215264 -16.31695321 -96.83091839 -13.83403284 -114.87646484 -3.9296875 C-116.51693678 -3.0295981 -118.19338647 -2.19566133 -119.875 -1.375 C-120.535 -1.705 -121.195 -2.035 -121.875 -2.375 C-102.05784598 -16.61399215 -79.22042146 -21.16232408 -55.22485352 -17.55273438 C-39.92736799 -14.89199279 -26.5438915 -9.61860325 -12.875 -2.375 C-10.87771245 -1.3695934 -8.87868543 -0.36759494 -6.875 0.625 C-31.31255346 -16.26488576 -58.49702403 -23.0943549 -88.15234375 -18.7265625 C-97.15064702 -17.04909044 -105.37610584 -13.78200407 -113.6171875 -9.86328125 C-116.10452187 -8.72698101 -118.21110221 -7.87699079 -120.875 -7.375 C-118.14487705 -10.73908409 -114.44407441 -12.14981758 -110.5625 -13.8125 C-109.8504541 -14.11889404 -109.1384082 -14.42528809 -108.40478516 -14.7409668 C-71.90531354 -30.07139361 -31.1091773 -24.39935475 0 0 Z " fill="#FAFAFA" transform="translate(316.875,169.375)"/>
<path d="M0 0 C18.73000925 16.29790357 29.34742857 36.70382706 35.125 60.625 C36.115 60.295 37.105 59.965 38.125 59.625 C44.71827882 59.07112197 51.3987378 58.9481369 57.125 62.625 C64.87826547 69.98683847 64.87826547 69.98683847 65.328125 74.796875 C65.44205273 81.06290025 65.10167451 85.49798839 60.578125 90.25 C54.14824718 96.16776366 48.48034052 96.84711023 39.9296875 96.890625 C37.14905684 96.62727836 35.49457073 96.05354504 33.125 94.625 C33.063125 95.676875 33.00125 96.72875 32.9375 97.8125 C31.73144975 107.3929555 27.08399478 116.45848519 22.125 124.625 C21.795 123.965 21.465 123.305 21.125 122.625 C21.97388358 120.2606799 22.88254747 117.99066943 23.875 115.6875 C29.26667362 103.99187106 29.26667362 103.99187106 29.125 91.625 C27.83266393 90.25189293 26.50062854 88.91465176 25.125 87.625 C24.795 86.635 24.465 85.645 24.125 84.625 C23.795 88.255 23.465 91.885 23.125 95.625 C19.165 95.625 15.205 95.625 11.125 95.625 C11.125 84.075 11.125 72.525 11.125 60.625 C15.085 60.625 19.045 60.625 23.125 60.625 C23.455 64.255 23.785 67.885 24.125 71.625 C24.558125 70.861875 24.99125 70.09875 25.4375 69.3125 C27.125 66.625 27.125 66.625 28.74609375 65.234375 C30.33712719 63.70893775 30.33712719 63.70893775 30.234375 61.50390625 C30.11578125 60.73949219 29.9971875 59.97507812 29.875 59.1875 C29.76671875 58.42566406 29.6584375 57.66382813 29.546875 56.87890625 C29.15159843 54.76710458 28.67374236 52.701706 28.125 50.625 C27.795 51.285 27.465 51.945 27.125 52.625 C26.526875 52.41875 25.92875 52.2125 25.3125 52 C22.84049154 51.31828085 22.84049154 51.31828085 20.125 53.625 C17.6875 54 17.6875 54 15.125 53.625 C13.805 52.305 12.485 50.985 11.125 49.625 C10.795 64.805 10.465 79.985 10.125 95.625 C5.835 95.625 1.545 95.625 -2.875 95.625 C-3.37 91.665 -3.37 91.665 -3.875 87.625 C-4.32875 88.3675 -4.7825 89.11 -5.25 89.875 C-10.19052761 95.05079083 -16.44386954 96.84039947 -23.5 97.125 C-29.45852557 96.8725201 -34.13519132 95.30331671 -38.44140625 91.09375 C-43.1244709 85.65018767 -43.22573742 81.84695798 -43.1484375 74.828125 C-42.7912492 70.64391915 -41.80556733 68.63071008 -38.875 65.625 C-32.11206084 60.01483456 -26.61736874 58.96722944 -17.875 59.625 C-12.17873613 60.8408412 -8.7291516 63.18688603 -4.875 67.625 C-4.545 67.955 -4.215 68.285 -3.875 68.625 C-3.545 58.065 -3.215 47.505 -2.875 36.625 C1.415 36.625 5.705 36.625 10.125 36.625 C10.455 38.605 10.785 40.585 11.125 42.625 C11.723125 41.965 12.32125 41.305 12.9375 40.625 C15.125 38.625 15.125 38.625 18.125 38.625 C2.402656 12.78139704 -19.46820686 -3.04301346 -48.68359375 -10.375 C-50.08019664 -10.71055753 -51.4772828 -11.04411464 -52.875 -11.375 C-54.37740234 -11.74625 -54.37740234 -11.74625 -55.91015625 -12.125 C-76.14215264 -16.31695321 -96.83091839 -13.83403284 -114.87646484 -3.9296875 C-116.51693678 -3.0295981 -118.19338647 -2.19566133 -119.875 -1.375 C-120.535 -1.705 -121.195 -2.035 -121.875 -2.375 C-102.05784598 -16.61399215 -79.22042146 -21.16232408 -55.22485352 -17.55273438 C-39.92736799 -14.89199279 -26.5438915 -9.61860325 -12.875 -2.375 C-10.87771245 -1.3695934 -8.87868543 -0.36759494 -6.875 0.625 C-31.31255346 -16.26488576 -58.49702403 -23.0943549 -88.15234375 -18.7265625 C-97.15064702 -17.04909044 -105.37610584 -13.78200407 -113.6171875 -9.86328125 C-116.10452187 -8.72698101 -118.21110221 -7.87699079 -120.875 -7.375 C-118.14487705 -10.73908409 -114.44407441 -12.14981758 -110.5625 -13.8125 C-109.8504541 -14.11889404 -109.1384082 -14.42528809 -108.40478516 -14.7409668 C-71.90531354 -30.07139361 -31.1091773 -24.39935475 0 0 Z " fill="#0B0B0B" transform="translate(316.875,169.375)"/>
<path d="M0 0 C0.495 0.99 0.495 0.99 1 2 C-0.0390625 3.92578125 -0.0390625 3.92578125 -1.625 6.3125 C-7.31075137 15.46774698 -10.43441506 25.59165135 -13 36 C-12.195625 36.144375 -11.39125 36.28875 -10.5625 36.4375 C-8 37 -8 37 -7 38 C-6.505 37.01 -6.505 37.01 -6 36 C-2.04 36 1.92 36 6 36 C6 47.55 6 59.1 6 71 C2.04 71 -1.92 71 -6 71 C-6 70.01 -6 69.02 -6 68 C-6.78375 68.495 -7.5675 68.99 -8.375 69.5 C-11 71 -11 71 -13 71 C-6.5805635 96.52670043 8.35870026 114.0192419 30.71679688 127.45703125 C42.88555907 134.56444988 55.85762503 141.53699569 70 143 C69.67 144.32 69.34 145.64 69 147 C49.09167214 144.83605132 32.07858898 133.37974557 16.625 121.375 C16.05378418 120.9318042 15.48256836 120.4886084 14.89404297 120.03198242 C10.98019511 116.93127514 7.47801321 113.58308913 4 110 C17.20322736 129.44932238 40.31902063 141.91436084 62.89453125 147.3828125 C85.07551299 151.30069419 110.55165788 146.99575864 131 138 C132.66471643 137.32847828 134.33092521 136.66061454 136 136 C130.19198482 143.12801862 120.54434765 145.70826024 112 148 C110.95972656 148.32355469 109.91945313 148.64710938 108.84765625 148.98046875 C80.29599015 156.54593561 53.66428537 153.71072213 28 139 C26.53046875 138.18595703 26.53046875 138.18595703 25.03125 137.35546875 C13.73831248 130.68679444 3.6502185 121.3317243 -3 110 C-3.3501416 109.41686035 -3.7002832 108.8337207 -4.06103516 108.23291016 C-9.53328172 99.00680037 -13.37791333 90.06988398 -15.53344727 79.51220703 C-16.12786469 77.05848722 -16.6602771 75.14384199 -18 73 C-20.26963425 71.78968931 -22.37815324 71.18106034 -24.87451172 70.57910156 C-27.6446325 69.82436615 -28.87828045 68.60131118 -30.5625 66.3125 C-31.03816406 65.68988281 -31.51382813 65.06726563 -32.00390625 64.42578125 C-32.33261719 63.95527344 -32.66132813 63.48476563 -33 63 C-33.33 65.64 -33.66 68.28 -34 71 C-38.29 71 -42.58 71 -47 71 C-47 52.52 -47 34.04 -47 15 C-42.71 15 -38.42 15 -34 15 C-33.67 24.57 -33.34 34.14 -33 44 C-31.02 41.69 -29.04 39.38 -27 37 C-25.94167969 36.71640625 -24.88335937 36.4328125 -23.79296875 36.140625 C-20.9080313 35.32375736 -20.9080313 35.32375736 -20.10791016 33.17773438 C-19.38347167 30.71557693 -18.82196698 28.26537572 -18.3125 25.75 C-17.06833679 20.09314722 -15.89102319 15.0988651 -13 10 C-11.67686964 13.96939108 -12.95281954 16.48416415 -14.3125 20.25 C-14.76842982 21.54634746 -15.22286479 22.84322166 -15.67578125 24.140625 C-15.89830566 24.77548828 -16.12083008 25.41035156 -16.35009766 26.06445312 C-17.34082353 29.01504467 -18.17226451 31.9999446 -19 35 C-17.515 34.505 -17.515 34.505 -16 34 C-14.79854642 31.02839912 -14.79854642 31.02839912 -13.8125 27.375 C-12.02611426 21.52561541 -9.78975147 16.1903935 -6.875 10.8125 C-6.36996948 9.87833252 -6.36996948 9.87833252 -5.85473633 8.92529297 C-4.10552235 5.77108611 -2.25205614 2.81856715 0 0 Z " fill="#090909" transform="translate(168,194)"/>
<path d="M0 0 C28.72434018 0 28.72434018 0 34.8984375 4.33203125 C38.79130206 8.2351944 39.48347968 11.51476788 39.6875 17 C39.44621497 22.0508999 39.06453807 25.86601791 35.58984375 29.66796875 C28.20118108 35.85846991 21.47672353 35.36448937 12 35 C12 41.93 12 48.86 12 56 C8.04 56 4.08 56 0 56 C0 37.52 0 19.04 0 0 Z " fill="#010101" transform="translate(237,209)"/>
<path d="M0 0 C3.32930223 1.38197451 6.00385003 3.00256668 9 5 C9.78375 4.360625 10.5675 3.72125 11.375 3.0625 C15.33324085 -0.04754638 17.75212405 -0.33663407 22.67578125 -0.2890625 C26.21479905 0.15108425 28.33025605 1.72095029 31 4 C33.42204038 7.63306058 33.23302891 9.31819023 33.1953125 13.63671875 C33.18886719 14.93544922 33.18242187 16.23417969 33.17578125 17.57226562 C33.1590706 18.94401307 33.14214071 20.31575786 33.125 21.6875 C33.11496674 23.07095718 33.10584149 24.45442127 33.09765625 25.83789062 C33.07404967 29.22543452 33.04112037 32.61263072 33 36 C29.04 36 25.08 36 21 36 C20.93941406 34.27910156 20.87882812 32.55820312 20.81640625 30.78515625 C20.73202109 28.5442614 20.64737209 26.30337647 20.5625 24.0625 C20.52318359 22.92619141 20.48386719 21.78988281 20.44335938 20.61914062 C20.40146484 19.53955078 20.35957031 18.45996094 20.31640625 17.34765625 C20.26141968 15.84730835 20.26141968 15.84730835 20.20532227 14.31665039 C20.25328159 12.03930812 20.25328159 12.03930812 19 11 C15.5 10.83333333 15.5 10.83333333 12 11 C10.28556781 12.71443219 10.76947033 15.00445241 10.68359375 17.34765625 C10.62075195 18.96704102 10.62075195 18.96704102 10.55664062 20.61914062 C10.51732422 21.75544922 10.47800781 22.89175781 10.4375 24.0625 C10.37272461 25.77276367 10.37272461 25.77276367 10.30664062 27.51757812 C10.20017262 30.34489508 10.09954738 33.17243092 10 36 C6.04 36 2.08 36 -2 36 C-2.04898438 34.44667969 -2.09796875 32.89335937 -2.1484375 31.29296875 C-2.22346697 29.25779433 -2.29901472 27.22263896 -2.375 25.1875 C-2.4059375 24.16333984 -2.436875 23.13917969 -2.46875 22.08398438 C-2.50742188 21.10107422 -2.54609375 20.11816406 -2.5859375 19.10546875 C-2.63306885 17.74651489 -2.63306885 17.74651489 -2.68115234 16.36010742 C-2.86027919 13.73474608 -2.86027919 13.73474608 -5 11 C-8.58357241 10.74984127 -8.58357241 10.74984127 -12 11 C-13.25838557 13.51677113 -13.20818973 15.41293288 -13.31640625 18.2265625 C-13.35830078 19.2578125 -13.40019531 20.2890625 -13.44335938 21.3515625 C-13.50233398 22.97191406 -13.50233398 22.97191406 -13.5625 24.625 C-13.60568359 25.71296875 -13.64886719 26.8009375 -13.69335938 27.921875 C-13.79964427 30.6144257 -13.90034504 33.30719576 -14 36 C-17.96 36 -21.92 36 -26 36 C-26 24.45 -26 12.9 -26 1 C-22.04 1 -18.08 1 -14 1 C-13.67 1.66 -13.34 2.32 -13 3 C-12.34 2.505 -11.68 2.01 -11 1.5 C-7.261566 -0.369217 -4.06939263 -0.60641929 0 0 Z " fill="#050505" transform="translate(202,229)"/>
<path d="M0 0 C3.96 0 7.92 0 12 0 C12 11.55 12 23.1 12 35 C8.04 35 4.08 35 0 35 C0 23.45 0 11.9 0 0 Z " fill="#070707" transform="translate(328,230)"/>
<path d="M0 0 C0.99 0.495 0.99 0.495 2 1 C2 1.66 2 2.32 2 3 C8.28851034 4.29616272 8.28851034 4.29616272 14 2 C14.99 2.66 15.98 3.32 17 4 C17.33 2.68 17.66 1.36 18 0 C18.508783 1.55966218 19.00663469 3.12289241 19.5 4.6875 C19.7784375 5.55761719 20.056875 6.42773438 20.34375 7.32421875 C21.01250755 10.05099805 21.29091155 12.20818752 21 15 C19.37660195 16.70884005 17.70680947 18.37446717 16 20 C14.680982 22.66533035 14.680982 22.66533035 14 25 C13.67 25 13.34 25 13 25 C13 20.71 13 16.42 13 12 C8.71 12 4.42 12 0 12 C0 8.04 0 4.08 0 0 Z " fill="#F2F2F2" transform="translate(327,218)"/>
<path d="M0 0 C4.10703441 0.85563217 5.55401113 2.24378009 8 5.625 C8.625 9.125 8.625 9.125 8 12.625 C5.55401113 16.00621991 4.10703441 17.39436783 0 18.25 C-4.10703441 17.39436783 -5.55401113 16.00621991 -8 12.625 C-8.625 9.125 -8.625 9.125 -8 5.625 C-5.55401113 2.24378009 -4.10703441 0.85563217 0 0 Z " fill="#F2F2F2" transform="translate(361,238.375)"/>
<path d="M0 0 C3.8425303 0.72047443 5.45767292 1.57152696 8 4.5625 C8.7975483 9.58705429 8.82360163 11.39976829 5.875 15.5625 C3 17.5625 3 17.5625 0 18.25 C-4.35321372 17.25238852 -5.65945491 15.27983632 -8 11.5625 C-8.625 8.5 -8.625 8.5 -8 5.5625 C-5.53959272 2.23371368 -4.10389613 0.76948052 0 0 Z " fill="#F3F3F3" transform="translate(294,238.4375)"/>
<path d="M0 0 C1.20785156 -0.01224609 2.41570312 -0.02449219 3.66015625 -0.03710938 C21.32618437 -0.06563364 35.03584487 4.74484874 50.5 12.75 C51.21051514 13.11359619 51.92103027 13.47719238 52.65307617 13.85180664 C56.9536264 16.14629028 60.10454108 18.56708924 63.375 22.1875 C59.71133113 20.81539235 56.27714574 19.15677175 52.80541992 17.36987305 C45.81667728 13.77464269 38.89638796 10.53435621 31.375 8.1875 C30.05822266 7.77564453 30.05822266 7.77564453 28.71484375 7.35546875 C12.65218752 2.66378643 -4.08357943 1.8081242 -20.625 4.1875 C-20.295 3.1975 -19.965 2.2075 -19.625 1.1875 C-13.06301144 -0.04463964 -6.65751635 0.00348561 0 0 Z " fill="#E7E7E7" transform="translate(247.625,148.8125)"/>
<path d="M0 0 C3.39470755 1.15564512 4.87501175 2.06492057 6.9375 5 C7.5 7.9375 7.5 7.9375 6.9375 11 C4.48155875 14.32274404 3.0118356 15.77618008 -1.0625 16.625 C-5.17539267 15.76814736 -6.65936932 14.42264067 -9.0625 11 C-9.2144185 6.67032286 -8.73561337 4.76927242 -5.875 1.5 C-3.0625 0 -3.0625 0 0 0 Z " fill="#0C0C0C" transform="translate(402.0625,250)"/>
<path d="M0 0 C8.08978328 -0.48297214 8.08978328 -0.48297214 12.0625 1.625 C14 4 14 4 14.5625 7 C13.88355363 10.62104732 12.88564803 11.77392866 10 14 C7 15 7 15 0 15 C0 10.05 0 5.1 0 0 Z " fill="#EEEEEE" transform="translate(249,219)"/>
<path d="M0 0 C0.42410156 0.36569092 0.84820312 0.73138184 1.28515625 1.1081543 C12.61089954 10.84860467 23.87294799 19.79060979 37 27 C38.04027344 27.57621094 39.08054688 28.15242188 40.15234375 28.74609375 C47.20286227 32.46128156 54.3570362 34.81629606 62 37 C64.00321486 37.65694344 66.00420944 38.32083545 68 39 C59.08427856 42.31594566 45.46642376 34.76153173 37.35864258 31.0625 C22.6824381 24.17920929 10.07952274 14.79071757 0 2 C0 1.34 0 0.68 0 0 Z " fill="#DCDCDC" transform="translate(171,303)"/>
<path d="M0 0 C2.66829926 0.27603096 4.06339212 1.0457832 6.25 2.625 C8 5 8 5 8.5625 8.4375 C7.85932009 12.89097279 6.56983614 14.32262289 3 17 C1.68 17 0.36 17 -1 17 C-1.02684679 14.35409986 -1.04676357 11.70846904 -1.0625 9.0625 C-1.07087891 8.30775391 -1.07925781 7.55300781 -1.08789062 6.77539062 C-1.09652441 4.85005687 -1.05224333 2.92464419 -1 1 C-0.67 0.67 -0.34 0.34 0 0 Z " fill="#E5E5E5" transform="translate(154,239)"/>
<path d="M0 0 C0.66 0.33 1.32 0.66 2 1 C-8.11591292 8.33037168 -20.27004415 14 -33 14 C-33 13.34 -33 12.68 -33 12 C-33.66 11.67 -34.32 11.34 -35 11 C-33.5459375 10.77957031 -33.5459375 10.77957031 -32.0625 10.5546875 C-21.09028693 8.7644044 -9.37825839 6.25217226 0 0 Z " fill="#2B2B2B" transform="translate(302,330)"/>
<path d="M0 0 C3.60546875 0.75390625 3.60546875 0.75390625 5.60546875 1.75390625 C5.60546875 2.74390625 5.60546875 3.73390625 5.60546875 4.75390625 C4.37054688 4.47675781 3.135625 4.19960937 1.86328125 3.9140625 C-9.60239563 1.43142686 -20.66964564 0.03711605 -32.39453125 -0.24609375 C-24.10397568 -5.7731308 -9.27905632 -1.68570377 0 0 Z " fill="#171717" transform="translate(272.39453125,148.24609375)"/>
<path d="M0 0 C0.66 0.66 1.32 1.32 2 2 C0.9584375 2.1959375 -0.083125 2.391875 -1.15625 2.59375 C-10.16409409 4.42791682 -17.92263635 7.00261298 -25.99609375 11.4453125 C-27.63903348 12.344216 -29.3169536 13.1786394 -31 14 C-31.66 13.67 -32.32 13.34 -33 13 C-9.82557133 -3.65125615 -9.82557133 -3.65125615 0 0 Z " fill="#252525" transform="translate(228,154)"/>
<path d="M0 0 C0.33 0.66 0.66 1.32 1 2 C-0.0390625 3.92578125 -0.0390625 3.92578125 -1.625 6.3125 C-6.94670724 14.87673584 -10.15762575 24.11817449 -12 34 C-12.99 34 -13.98 34 -15 34 C-14.45231445 28.57931742 -13.10835867 24.20362216 -10.875 19.25 C-10.41565063 18.21262695 -10.41565063 18.21262695 -9.94702148 17.15429688 C-7.17217516 11.05486385 -3.83479227 5.50158647 0 0 Z " fill="#2C2C2C" transform="translate(168,194)"/>
<path d="M0 0 C-0.58265625 0.23074219 -1.1653125 0.46148437 -1.765625 0.69921875 C-7.68222334 3.05283413 -13.56518009 5.47790504 -19.43359375 7.94921875 C-21.2635376 8.69846517 -23.1240847 9.3746949 -25 10 C-24.71606445 8.10424805 -24.71606445 8.10424805 -24 6 C-21.36758973 4.72989923 -18.93722016 3.7386962 -16.1875 2.8125 C-15.46240234 2.55275391 -14.73730469 2.29300781 -13.99023438 2.02539062 C-4.33479055 -1.39332553 -4.33479055 -1.39332553 0 0 Z " fill="#F2F2F2" transform="translate(228,152)"/>
<path d="M0 0 C3.69230769 0.69230769 3.69230769 0.69230769 5 2 C5.04092937 4.33297433 5.04241723 6.66705225 5 9 C3.35 9.33 1.7 9.66 0 10 C-2 7 -2 7 -1.6875 3.875 C-1 1 -1 1 0 0 Z " fill="#373737" transform="translate(244,436)"/>
<path d="M0 0 C0.33 0.66 0.66 1.32 1 2 C1.66 2.33 2.32 2.66 3 3 C-3.19148936 20.34042553 -3.19148936 20.34042553 -8 28 C-8.33 27.34 -8.66 26.68 -9 26 C-8.15110333 23.63564344 -7.24322568 21.36538978 -6.25 19.0625 C-3.64039671 12.81318685 -1.56457595 6.60141256 0 0 Z " fill="#202020" transform="translate(347,266)"/>
<path d="M0 0 C1.65 0 3.3 0 5 0 C7 2 7 2 7.1953125 3.9453125 C7.13020833 5.96354167 7.06510417 7.98177083 7 10 C6.34 9.67 5.68 9.34 5 9 C5 8.01 5 7.02 5 6 C3.68 6 2.36 6 1 6 C0.67 7.32 0.34 8.64 0 10 C0 6.7 0 3.4 0 0 Z " fill="#676767" transform="translate(206,290)"/>
<path d="M0 0 C4.03224667 1.38248457 6.73364781 3.2913177 10 6 C11.97478992 7.37580151 13.98270488 8.68641248 16 10 C15.67 10.99 15.34 11.98 15 13 C13.75283203 12.06027344 13.75283203 12.06027344 12.48046875 11.1015625 C11.38284458 10.27599902 10.28518655 9.45048054 9.1875 8.625 C8.64029297 8.2125 8.09308594 7.8 7.52929688 7.375 C5.05553395 5.51592968 2.57565041 3.71710028 0 2 C0 1.34 0 0.68 0 0 Z " fill="#1B1B1B" transform="translate(180,310)"/>
<path d="M0 0 C0.66 0 1.32 0 2 0 C2.99 2.97 3.98 5.94 5 9 C4.05125 8.814375 3.1025 8.62875 2.125 8.4375 C-0.89868793 7.71313368 -0.89868793 7.71313368 -3 9 C-2.44271087 5.65626525 -1.64826111 2.96687001 0 0 Z " fill="#555555" transform="translate(243,291)"/>
<path d="M0 0 C0.86882812 0.09925781 1.73765625 0.19851562 2.6328125 0.30078125 C4.875 0.6875 4.875 0.6875 6.875 1.6875 C6.875 2.6775 6.875 3.6675 6.875 4.6875 C1.595 3.6975 -3.685 2.7075 -9.125 1.6875 C-5.08696802 -0.33151599 -4.20419014 -0.52081758 0 0 Z " fill="#222222" transform="translate(271.125,148.3125)"/>
<path d="M0 0 C1.65 0 3.3 0 5 0 C5 1.32 5 2.64 5 4 C5.185625 4.70125 5.37125 5.4025 5.5625 6.125 C6 8 6 8 5 10 C3.35 10 1.7 10 0 10 C0 9.34 0 8.68 0 8 C1.32 8 2.64 8 4 8 C4 7.01 4 6.02 4 5 C3.01 4.67 2.02 4.34 1 4 C1.33 3.34 1.66 2.68 2 2 C1.34 2 0.68 2 0 2 C0 1.34 0 0.68 0 0 Z " fill="#525252" transform="translate(260,436)"/>
<path d="M0 0 C1.67542976 0.28604898 3.34385343 0.61781233 5 1 C5 1.99 5 2.98 5 4 C3.68 4.33 2.36 4.66 1 5 C2.32 5 3.64 5 5 5 C5 5.66 5 6.32 5 7 C3.33388095 7.042721 1.66617115 7.04063832 0 7 C-1 6 -1 6 -1.125 3.5 C-1 1 -1 1 0 0 Z " fill="#4D4D4D" transform="translate(262,426)"/>
<path d="M0 0 C1.98 0.495 1.98 0.495 4 1 C4.6875 2.75 4.6875 2.75 5 5 C3.5625 7.25 3.5625 7.25 2 9 C2.99 9.33 3.98 9.66 5 10 C3.02 10 1.04 10 -1 10 C0.33333333 7.33333333 1.66666667 4.66666667 3 2 C1.68 2.33 0.36 2.66 -1 3 C-0.67 2.01 -0.34 1.02 0 0 Z " fill="#3F3F3F" transform="translate(253,436)"/>
<path d="M0 0 C0 0.66 0 1.32 0 2 C-3.61973402 3.31626692 -6.09567131 4 -10 4 C-10 3.34 -10 2.68 -10 2 C-10.66 1.67 -11.32 1.34 -12 1 C-7.93631321 0.22596442 -4.13574827 -0.0984702 0 0 Z " fill="#1E1E1E" transform="translate(279,340)"/>
<path d="M0 0 C1.39195915 4.17587745 -0.17676781 6.13474776 -2 10 C-2.66 10 -3.32 10 -4 10 C-4.99 7.03 -5.98 4.06 -7 1 C-6.01 1.99 -5.02 2.98 -4 4 C-4 4.66 -4 5.32 -4 6 C-3.34 6 -2.68 6 -2 6 C-1.34 4.02 -0.68 2.04 0 0 Z " fill="#444444" transform="translate(295,290)"/>
<path d="M0 0 C4.66989808 0.26685132 8.09833692 2.62840087 12 5 C8.22134307 6.25955231 6.96588214 5.48087189 3.3125 4.0625 C2.31863281 3.68222656 1.32476562 3.30195313 0.30078125 2.91015625 C-0.45847656 2.60980469 -1.21773438 2.30945313 -2 2 C-1.34 1.34 -0.68 0.68 0 0 Z " fill="#E2E2E2" transform="translate(284,156)"/>
<path d="M0 0 C2.76223278 2.76223278 2.57856291 5.20706617 3 9 C2.34 9 1.68 9 1 9 C0.67 9.66 0.34 10.32 0 11 C-0.66 8.69 -1.32 6.38 -2 4 C-1.34 4 -0.68 4 0 4 C0 2.68 0 1.36 0 0 Z " fill="#BBBBBB" transform="translate(344,218)"/>
<path d="M0 0 C0.99 0.33 1.98 0.66 3 1 C3 2.65 3 4.3 3 6 C1.68 6 0.36 6 -1 6 C-1.042721 4.33388095 -1.04063832 2.66617115 -1 1 C-0.67 0.67 -0.34 0.34 0 0 Z " fill="#EDEDED" transform="translate(245,438)"/>
<path d="M0 0 C2.31 0 4.62 0 7 0 C7 0.66 7 1.32 7 2 C6.01 2 5.02 2 4 2 C4 4.64 4 7.28 4 10 C3.67 10 3.34 10 3 10 C3 7.36 3 4.72 3 2 C2.01 2 1.02 2 0 2 C0 1.34 0 0.68 0 0 Z " fill="#3B3B3B" transform="translate(258,290)"/>
</svg>
